<?xml version="1.0" encoding="UTF-8" standalone="no"?>
<!-- Created with Inkscape (http://www.inkscape.org/) -->

<svg
   width="1386.002"
   height="1350"
   viewBox="0 0 1386.002 1350"
   version="1.1"
   id="svg1"
   xml:space="preserve"
   xmlns="http://www.w3.org/2000/svg"
   xmlns:svg="http://www.w3.org/2000/svg"><defs
     id="defs1"><linearGradient
       id="swatch271"><stop
         style="stop-color:#48b899;stop-opacity:1;"
         offset="0"
         id="stop271" /></linearGradient></defs><g
     id="layer1"
     style="display:inline"
     transform="translate(-586.99894,-284.99997)"><g
       id="g622"
       transform="matrix(1.4999993,0,0,1.4999993,-639.9991,-479.99897)"
       style="display:inline;stroke-width:0.666667"><g
         id="g600"
         transform="matrix(0.8755965,0,0,0.8755965,142.21099,147.63239)"
         style="stroke-width:0.76138"><g
           id="text595"
           style="font-weight:300;font-size:165px;font-family:HYPNUM76R;-inkscape-font-specification:'HYPNUM76R Light';letter-spacing:0px;white-space:pre;fill:#2b2b2b;stroke-width:18.3209"
           transform="matrix(0.83116883,0,0,0.83116883,472.10677,44.515205)"
           aria-label="gnu/linux"><path
             d="m 717.22168,1572.7344 h 24.97559 q 9.3457,0 16.91894,5.3174 7.73438,5.3173 10.7959,14.0185 0.32226,0.6445 0.32226,1.7725 0,2.0947 -1.45019,3.5449 -1.28906,1.2891 -3.38379,1.2891 -3.54492,0 -4.67285,-3.545 -2.09473,-5.8007 -7.25098,-9.1845 -5.15625,-3.545 -11.27929,-3.545 h -24.97559 q -8.21777,0 -14.01856,5.8008 -5.80078,5.8008 -5.80078,14.0186 v 49.3066 q 0,8.2178 5.80078,14.0186 5.80079,5.8008 14.01856,5.8008 h 23.52539 q 8.21777,0 14.01855,-5.8008 5.80079,-5.8008 5.80079,-14.0186 v -19.8193 h -26.74805 q -2.09473,0 -3.54492,-1.2891 -1.28907,-1.4502 -1.28907,-3.5449 0,-2.0947 1.28907,-3.3838 1.45019,-1.4502 3.54492,-1.4502 h 31.58203 q 2.09473,0 3.38379,1.4502 1.45019,1.2891 1.45019,3.3838 v 24.6533 q 0,12.2461 -8.70117,20.9473 -8.54004,8.54 -20.78613,8.54 h -23.52539 q -12.24609,0 -20.94727,-8.54 -8.54004,-8.7012 -8.54004,-20.9473 v -49.3066 -0.4834 q 0.32227,-11.9238 8.70118,-20.3028 8.3789,-8.3789 20.30273,-8.7011 z m 142.60254,1.4502 q 1.45019,-1.4502 3.54492,-1.4502 2.09473,0 3.38379,1.4502 1.45019,1.289 1.45019,3.3838 v 98.6132 q 0,2.0948 -1.45019,3.545 -1.28906,1.289 -3.38379,1.289 -2.41699,0 -3.86719,-1.9336 l -64.13086,-86.8506 v 83.9502 q 0,2.0948 -1.45019,3.545 -1.28906,1.289 -3.38379,1.289 -2.09473,0 -3.54492,-1.289 -1.28907,-1.4502 -1.28907,-3.545 v -98.6132 q 0,-2.0948 1.28907,-3.3838 1.45019,-1.4502 3.54492,-1.4502 2.41699,0 3.86719,1.9336 l 64.13086,86.8506 v -83.9502 q 0,-2.0948 1.28906,-3.3838 z m 25.13672,0 q 1.45019,-1.4502 3.54492,-1.4502 2.09473,0 3.38379,1.4502 1.45019,1.289 1.45019,3.3838 v 73.9599 q 0,8.2178 5.80078,14.0186 5.80079,5.8008 14.01856,5.8008 h 23.52539 q 8.21777,0 14.01855,-5.8008 5.80079,-5.8008 5.80079,-14.0186 v -73.9599 q 0,-2.0948 1.28906,-3.3838 1.45019,-1.4502 3.54492,-1.4502 2.09473,0 3.38379,1.4502 1.45019,1.289 1.45019,3.3838 v 73.9599 q 0,12.2461 -8.70117,20.9473 -8.54004,8.54 -20.78613,8.54 h -23.52539 q -12.24609,0 -20.94727,-8.54 -8.54004,-8.7012 -8.54004,-20.9473 v -73.9599 q 0,-2.0948 1.28907,-3.3838 z"
             id="path618"
             style="stroke-width:18.3209" /><path
             style="-inkscape-font-specification:'HYPNUM76R Bold';stroke-width:18.3209"
             d="m 1050.2832,1575.1514 q 2.417,-2.417 5.8008,-2.417 3.3838,0 5.6396,2.417 2.417,2.2558 2.417,5.6396 v 7.251 q 0,2.7393 -1.9336,5.1562 l -64.45309,75.4102 v 4.3506 q 0,3.3838 -2.417,5.8008 -2.25586,2.2558 -5.63964,2.2558 -3.38379,0 -5.80079,-2.2558 -2.25586,-2.417 -2.25586,-5.8008 v -7.251 q 0,-2.7392 1.9336,-5.1562 l 64.45308,-75.4102 v -4.3506 q 0,-3.3838 2.2559,-5.6396 z"
             id="path619" /><path
             d="m 1080.8984,1574.1846 q 1.4502,-1.4502 3.545,-1.4502 2.0947,0 3.3837,1.4502 1.4502,1.289 1.4502,3.3838 v 93.7793 h 67.9981 q 2.0947,0 3.3838,1.4502 1.4502,1.289 1.4502,3.3837 0,2.0948 -1.4502,3.545 -1.2891,1.289 -3.3838,1.289 h -72.832 q -2.0948,0 -3.545,-1.289 -1.289,-1.4502 -1.289,-3.545 v -98.6132 q 0,-2.0948 1.289,-3.3838 z m 101.5137,-1.4502 h 36.416 36.416 q 1.9336,0 3.3838,1.4502 1.4502,1.4502 1.4502,3.3838 0,1.9336 -1.4502,3.3837 -1.4502,1.4502 -3.3838,1.4502 h -31.582 v 88.9454 h 31.582 q 2.0948,0 3.3838,1.4502 1.4502,1.289 1.4502,3.3837 0,2.0948 -1.4502,3.545 -1.289,1.289 -3.3838,1.289 h -36.416 -36.416 q -1.9336,0 -3.3838,-1.4502 -1.4502,-1.4502 -1.4502,-3.3838 0,-1.9336 1.4502,-3.3837 1.4502,-1.4502 3.3838,-1.4502 h 31.582 v -88.9454 h -31.582 q -2.0947,0 -3.5449,-1.289 -1.2891,-1.4502 -1.2891,-3.5449 0,-2.0948 1.2891,-3.3838 1.4502,-1.4502 3.5449,-1.4502 z m 167.2559,1.4502 q 1.4502,-1.4502 3.5449,-1.4502 2.0947,0 3.3838,1.4502 1.4502,1.289 1.4502,3.3838 v 98.6132 q 0,2.0948 -1.4502,3.545 -1.2891,1.289 -3.3838,1.289 -2.417,0 -3.8672,-1.9336 l -64.1309,-86.8506 v 83.9502 q 0,2.0948 -1.4502,3.545 -1.289,1.289 -3.3837,1.289 -2.0948,0 -3.545,-1.289 -1.289,-1.4502 -1.289,-3.545 v -98.6132 q 0,-2.0948 1.289,-3.3838 1.4502,-1.4502 3.545,-1.4502 2.417,0 3.8671,1.9336 l 64.1309,86.8506 v -83.9502 q 0,-2.0948 1.2891,-3.3838 z m 25.1367,0 q 1.4502,-1.4502 3.5449,-1.4502 2.0947,0 3.3838,1.4502 1.4502,1.289 1.4502,3.3838 v 73.9599 q 0,8.2178 5.8008,14.0186 5.8008,5.8008 14.0185,5.8008 h 23.5254 q 8.2178,0 14.0186,-5.8008 5.8008,-5.8008 5.8008,-14.0186 v -73.9599 q 0,-2.0948 1.289,-3.3838 1.4502,-1.4502 3.5449,-1.4502 2.0948,0 3.3838,1.4502 1.4502,1.289 1.4502,3.3838 v 73.9599 q 0,12.2461 -8.7011,20.9473 -8.5401,8.54 -20.7862,8.54 h -23.5254 q -12.2461,0 -20.9472,-8.54 -8.5401,-8.7012 -8.5401,-20.9473 v -73.9599 q 0,-2.0948 1.2891,-3.3838 z m 97.9687,0 q 1.4502,-1.4502 3.545,-1.4502 2.0947,0 3.3837,1.4502 1.4502,1.289 1.4502,3.3838 v 8.54 l 31.5821,33.6768 31.582,-33.6768 v -8.54 q 0,-2.0948 1.2891,-3.3838 1.4502,-1.4502 3.5449,-1.4502 2.0947,0 3.3838,1.4502 1.4502,1.289 1.4502,3.3838 v 10.4736 q 0,2.0947 -1.2891,3.3838 l -33.3545,35.4492 33.3545,35.4492 q 1.2891,1.2891 1.2891,3.3838 v 10.4736 q 0,2.0948 -1.4502,3.545 -1.2891,1.289 -3.3838,1.289 -2.0947,0 -3.5449,-1.289 -1.2891,-1.4502 -1.2891,-3.545 v -8.54 l -31.582,-33.6768 -31.5821,33.6768 v 8.54 q 0,2.0948 -1.4502,3.545 -1.289,1.289 -3.3837,1.289 -2.0948,0 -3.545,-1.289 -1.289,-1.4502 -1.289,-3.545 v -10.4736 q 0,-2.0947 1.289,-3.3838 l 33.3545,-35.4492 -33.3545,-35.4492 q -1.289,-1.2891 -1.289,-3.3838 v -10.4736 q 0,-2.0948 1.289,-3.3838 z"
             id="path620"
             style="stroke-width:18.3209" /></g><g
           id="text590"
           style="font-size:128px;font-family:HYPNUM76R;-inkscape-font-specification:HYPNUM76R;letter-spacing:0px;white-space:pre;fill:#2b2b2b;stroke-width:0.484789"
           transform="matrix(1.7857143,0,0,1.7857143,209.36352,-1295.4582)"
           aria-label="cachyos"><path
             style="-inkscape-font-specification:'HYPNUM76R Bold';stroke-width:0.484789"
             d="m 374.57031,1390.0215 h 15.75 q 9.875,0 16.875,7 7.125,6.875 7.25,16.75 v 0.375 q 0,2.625 -1.875,4.5 -1.75,1.75 -4.375,1.75 -2.625,0 -4.5,-1.75 -1.75,-1.875 -1.75,-4.5 0,-4.875 -3.375,-8.25 -3.375,-3.375 -8.25,-3.375 h -15.75 q -4.875,0 -8.25,3.375 -3.375,3.375 -3.375,8.25 v 35.75 q 0,4.875 3.375,8.25 3.375,3.375 8.25,3.375 h 15.75 q 4.875,0 8.25,-3.375 3.375,-3.375 3.375,-8.25 0,-2.625 1.75,-4.375 1.875,-1.875 4.5,-1.875 2.625,0 4.375,1.875 1.875,1.75 1.875,4.375 0,9.875 -7.125,17 -7.125,7.125 -17,7.125 h -15.75 q -9.875,0 -17,-7.125 -7.125,-7.125 -7.125,-17 v -35.75 q 0,-9.875 7.125,-17 7.125,-7.125 17,-7.125 z m 73.5,0 q 0,0 15.375,0 0,0 5.375,0 4.125,0 5.75,3.75 l 15.375,35.75 q 0.5,1 0.5,2.5 v 17.875 17.875 q 0,2.625 -1.875,4.5 -1.75,1.75 -4.375,1.75 -2.625,0 -4.5,-1.75 -1.75,-1.875 -1.75,-4.5 v -11.625 h -39 v 11.625 q 0,2.625 -1.875,4.5 -1.75,1.75 -4.375,1.75 -2.625,0 -4.5,-1.75 -1.75,-1.875 -1.75,-4.5 v -17.875 -17.875 q 0,-1.5 0.5,-2.5 l 15.375,-35.75 q 1.625,-3.75 5.75,-3.75 z m 4.125,12.5 -13.25,30.75 v 10.375 h 39 v -10.375 l -13.25,-30.75 z m 74.375,-12.5 h 15.75 q 9.875,0 16.875,7 7.125,6.875 7.25,16.75 v 0.375 q 0,2.625 -1.875,4.5 -1.75,1.75 -4.375,1.75 -2.625,0 -4.5,-1.75 -1.75,-1.875 -1.75,-4.5 0,-4.875 -3.375,-8.25 -3.375,-3.375 -8.25,-3.375 h -15.75 q -4.875,0 -8.25,3.375 -3.375,3.375 -3.375,8.25 v 35.75 q 0,4.875 3.375,8.25 3.375,3.375 8.25,3.375 h 15.75 q 4.875,0 8.25,-3.375 3.375,-3.375 3.375,-8.25 0,-2.625 1.75,-4.375 1.875,-1.875 4.5,-1.875 2.625,0 4.375,1.875 1.875,1.75 1.875,4.375 0,9.875 -7.125,17 -7.125,7.125 -17,7.125 h -15.75 q -9.875,0 -17,-7.125 -7.125,-7.125 -7.125,-17 v -35.75 q 0,-9.875 7.125,-17 7.125,-7.125 17,-7.125 z m 53.625,1.875 q 1.875,-1.875 4.5,-1.875 2.625,0 4.375,1.875 1.875,1.75 1.875,4.375 v 29.5 h 39 v -29.5 q 0,-2.5 1.875,-4.25 1.875,-1.875 4.375,-1.875 2.5,0 4.375,1.875 1.875,1.75 1.875,4.25 v 71.5 q 0,2.625 -1.875,4.5 -1.75,1.75 -4.375,1.75 -2.625,0 -4.5,-1.75 -1.75,-1.875 -1.75,-4.5 v -29.5 h -39 v 29.5 q 0,2.625 -1.875,4.5 -1.75,1.75 -4.375,1.75 -2.625,0 -4.5,-1.75 -1.75,-1.875 -1.75,-4.5 v -71.5 q 0,-2.625 1.75,-4.375 z m 76,0 q 1.875,-1.875 4.5,-1.875 2.625,0 4.375,1.875 1.875,1.75 1.875,4.375 v 3.375 l 19.5,22.75 19.5,-22.75 v -3.375 q 0,-2.625 1.75,-4.375 1.875,-1.875 4.5,-1.875 2.625,0 4.375,1.875 1.875,1.75 1.875,4.375 v 5.625 q 0,2.125 -1.5,4 l -24.25,28.375 v 33.5 q 0,2.625 -1.875,4.5 -1.75,1.75 -4.375,1.75 -2.625,0 -4.5,-1.75 -1.75,-1.875 -1.75,-4.5 v -33.5 l -24.25,-28.375 q -1.5,-1.875 -1.5,-4 v -5.625 q 0,-2.625 1.75,-4.375 z"
             id="path621" /><path
             style="-inkscape-font-specification:'HYPNUM76R Light';stroke-width:0.484789"
             d="m 771.57031,1397.5215 h -18.25 q -6.375,0 -10.875,4.5 -4.5,4.5 -4.5,10.875 v 38.25 q 0,6.375 4.5,10.875 4.5,4.5 10.875,4.5 h 18.25 q 6.375,0 10.875,-4.5 4.5,-4.5 4.5,-10.875 v -38.25 q 0,-6.375 -4.5,-10.875 -4.5,-4.5 -10.875,-4.5 z m -18.25,-7.5 h 18.25 0.375 q 9.25,0.25 15.75,6.75 6.5,6.5 6.75,15.75 v 0.375 38.25 q 0,9.5 -6.75,16.25 -6.625,6.625 -16.125,6.625 h -18.25 q -9.5,0 -16.25,-6.625 -6.625,-6.75 -6.625,-16.25 v -38.25 q 0,-9.5 6.625,-16.125 6.75,-6.75 16.25,-6.75 z m 76,0 h 18.25 q 0,0 0.375,0 9.25,0.25 15.75,6.75 6.5,6.5 6.75,15.75 v 0.375 q 0,1.625 -1.125,2.75 -1,1 -2.625,1 -1.625,0 -2.75,-1 -1,-1.125 -1,-2.75 0,-6.375 -4.5,-10.875 -4.5,-4.5 -10.875,-4.5 h -18.25 q -6.375,0 -10.875,4.5 -4.5,4.5 -4.5,10.875 0,3.75 1.625,6 1.625,2.125 5.25,4 5.25,2.625 18.375,5.5 14.25,3 20.375,6.25 10.875,5.625 10.875,16.5 0,9.5 -6.75,16.25 -6.625,6.625 -16.125,6.625 h -18.25 q -9.5,0 -16.25,-6.625 -6.625,-6.75 -6.625,-16.25 0,-1.625 1,-2.625 1.125,-1.125 2.75,-1.125 1.625,0 2.625,1.125 1.125,1 1.125,2.625 0,6.375 4.5,10.875 4.5,4.5 10.875,4.5 h 18.25 q 6.375,0 10.875,-4.5 4.5,-4.5 4.5,-10.875 0,-3.625 -1.625,-5.75 -1.625,-2.25 -5.25,-4.125 -5.375,-2.75 -18.375,-5.5 -14,-3 -20.375,-6.25 -10.875,-5.625 -10.875,-16.625 0,-9.5 6.625,-16.125 6.75,-6.75 16.25,-6.75 z"
             id="path622" /></g></g><path
         id="path595"
         style="display:inline;fill:#2b2b2b;fill-opacity:1;stroke:none;stroke-width:1.54514;stroke-linecap:round;stroke-linejoin:round;stroke-opacity:1"
         d="m 1065.6394,510.00046 c -136.7668,6.6e-4 -247.63817,110.87049 -247.6403,247.63651 v 134.72205 c 0,131.65938 107.06332,247.64058 247.6377,247.64058 h 481.6782 c 107.5221,-4e-4 194.6858,-87.1636 194.6859,-194.68553 v 0 -28.41755 c -0.1346,-14.73919 -4.6464,-29.10573 -12.962,-41.27571 v 0 c -13.7055,-20.5413 -36.7126,-32.94012 -61.4055,-33.09191 h -156.6327 c -27.712,0.0701 -51.568,19.5851 -57.1284,46.73327 l -13.6429,65.41108 c -4.4189,21.21657 -23.0572,36.46416 -44.7287,36.59094 h -57.7503 c -16.5092,-0.78463 -31.5751,-12.62428 -35.4377,-29.00705 v 0 l -31.7745,-134.79377 h -0.016 c -6.2202,-26.39357 -29.773,-45.04563 -56.8898,-45.05298 -18.7429,0.0558 -36.3222,9.09383 -47.273,24.30422 l -0.1539,-0.0308 -60.1162,83.3847 c -7.8964,10.38091 -23.8565,13.02255 -34.0928,2.5441 -8.9909,-9.20372 -7.1487,-22.11654 -2.0486,-28.79148 l 109.5464,-149.74013 0.2796,-0.68447 c 6.9926,-9.66408 11.5581,-20.86845 13.3109,-32.66759 l 8.2106,-36.61024 c 2.3134,-9.79548 10.8938,-16.83295 20.9529,-17.1855 h 53.0305 v 0 h 62.4705 c 12.7197,0.034 24.8566,5.33782 33.5226,14.64896 l 0.2075,0.0911 94.2554,101.82109 0.055,-0.004 c 4.2135,4.55334 10.1309,7.14899 16.3348,7.16492 7.1296,-0.0222 13.8202,-3.44648 18.0074,-9.21697 l 0.07,-0.004 91.5431,-126.23178 -0.028,-0.0807 c 3.51,-4.82431 5.4117,-10.63123 5.436,-16.59716 0,-12.07244 -7.6342,-22.82489 -19.03,-26.8101 v -0.007 l -170.4525,-59.59432 -0.2485,-0.0872 -0.029,-0.007 c -3.8239,-1.33477 -7.8455,-2.01763 -11.8958,-2.0195 z" /></g></g></svg>
