<?xml version="1.0" encoding="UTF-8" standalone="no"?>
<!-- Created with Inkscape (http://www.inkscape.org/) -->

<svg
   width="1238.0952"
   height="1240"
   viewBox="0 0 1238.0952 1240"
   version="1.1"
   id="svg1"
   xml:space="preserve"
   sodipodi:docname="cachyOS_logo_fan-made.svg"
   inkscape:version="1.4 (e7c3feb100, 2024-10-09)"
   xmlns:inkscape="http://www.inkscape.org/namespaces/inkscape"
   xmlns:sodipodi="http://sodipodi.sourceforge.net/DTD/sodipodi-0.dtd"
   xmlns="http://www.w3.org/2000/svg"
   xmlns:svg="http://www.w3.org/2000/svg"><sodipodi:namedview
     id="namedview1"
     pagecolor="#ffffff"
     bordercolor="#000000"
     borderopacity="0.25"
     inkscape:showpageshadow="2"
     inkscape:pageopacity="0.0"
     inkscape:pagecheckerboard="0"
     inkscape:deskcolor="#d1d1d1"
     inkscape:zoom="0.52"
     inkscape:cx="619.23077"
     inkscape:cy="619.23077"
     inkscape:window-width="1920"
     inkscape:window-height="1011"
     inkscape:window-x="0"
     inkscape:window-y="32"
     inkscape:window-maximized="1"
     inkscape:current-layer="svg1" /><defs
     id="defs1" /><g
     id="layer1"
     transform="translate(-660.9524,-340)"><g
       id="g289"
       transform="matrix(2.8553816,0,0,2.8553816,363.60384,463.13037)"
       style="fill:#2b2b2b;fill-opacity:1"><path
         id="path109"
         style="display:inline;fill:#2b2b2b;fill-opacity:1;stroke-width:0;stroke-linecap:round;stroke-linejoin:round"
         d="m 213.39624,-43.122542 c -57.38039,1.19e-4 -103.89635,46.5160806 -103.89647,103.896471 -0.32813,42.769321 0.23019,85.621751 0,128.416351 1.1e-4,57.38039 46.51608,103.89638 103.89647,103.89648 0.83272,-0.0718 1.66454,-0.15367 2.49529,-0.24557 -2.09198,-0.12552 -4.15358,-0.30241 -6.18487,-0.52872 -2.03129,-0.22634 -4.03242,-0.50231 -6.00292,-0.82563 -1.9705,-0.32329 -3.91067,-0.69371 -5.82028,-1.11015 -1.90962,-0.41641 -3.78835,-0.87873 -5.63697,-1.38444 1.84862,0.50571 3.72735,0.96803 5.63697,1.38444 1.90961,0.41644 3.84978,0.78686 5.82028,1.11015 1.9705,0.32332 3.97163,0.59929 6.00292,0.82563 2.03129,0.22631 4.09289,0.4032 6.18487,0.52872 2.49845,0.14993 5.03052,0.24214 7.61515,0.24214 l 205.40778,0.004 v 0 0 c 57.38039,-1.4e-4 103.89634,-46.51609 103.89645,-103.89648 -0.005,-4.16166 -0.25888,-8.3193 -0.762,-12.45043 -0.50281,-4.13106 -1.25339,-8.22816 -2.24765,-12.26919 -0.99451,-4.04105 -2.23095,-8.0187 -3.70259,-11.91144 -1.47164,-3.89279 -3.17586,-7.69365 -5.10345,-11.38202 -7.16696,-7.0746 -17.00543,-11.44972 -27.87155,-11.44973 h -83.98548 c -18.00271,0.0298 -33.73034,12.17349 -38.31376,29.58298 l -0.0827,0.0643 -8.47975,33.70958 c -3.41176,10.5975 -11.84678,18.3227 -24.06501,18.3227 -2.75557,0 -7.033,-0.69472 -11.2931,-3.08011 v 0 c -3.84834,-2.15481 -7.66202,-5.71097 -10.34299,-11.69735 -1.10627,-2.47011 -2.03703,-5.30077 -2.6711,-8.63842 0,0 -4.70991,-26.28128 -6.95984,-39.37535 l -1.10812,-6.79296 v 0 c -1.04602,-6.41489 -3.33559,-15.54587 -8.22342,-20.66484 -3.49028,-3.65535 -7.95375,-6.28757 -12.97234,-7.52827 -2.1026,-0.54632 -4.25635,-0.83957 -6.42699,-0.87485 -6.44856,7e-4 -12.68237,2.31818 -17.56689,6.52824 l -0.006,-0.002 -52.11036,44.90903 -3.8558,3.32295 v 0 c -1.77599,1.6491 -4.29082,2.37454 -6.71155,2.49186 -7.08486,2.3e-4 -10.28156,-6.37842 -10.28144,-10.28143 0.12727,-2.85473 1.21422,-5.78216 3.39203,-7.63225 v 0 l 64.18801,-57.940891 15.47173,-13.96622 0.3297,-0.45693 c 0.91038,-0.96392 1.79394,-1.95283 2.6485,-2.96657 5.86346,-5.85771 10.64776,-12.70429 14.13248,-20.22429 l 0.12243,-0.16895 14.0688,-31.826553 0.36321,-0.235982 c 1.22828,-2.637221 3.32005,-4.635847 5.79706,-5.944778 1.773,-0.936919 3.71848,-1.567731 5.80045,-1.608805 h 9.5584 28.34221 c 4.06835,0.0095 7.74873,2.416 9.38743,6.139723 l 0.0329,0.02052 18.35898,41.952725 0.0109,0.004 c 1.6367,3.73703 5.32961,6.15284 9.40931,6.15682 1.6685,-0.009 3.30978,-0.4247 4.78195,-1.21002 l 0.0322,0.0109 72.40097,-38.374635 v -0.05062 c 5.42534,-2.87695 8.82425,-8.508625 8.84159,-14.649559 0,-5.526659 -2.74493,-10.6921264 -7.32512,-13.7849634 v -0.0021 l -59.57361,-40.2255766 -0.013,-0.0041 c -5.65525,-3.815722 -12.32192,-5.855586 -19.14504,-5.856854 v -7e-4 l -165.57482,7e-4 c -1.90041,0 -3.78879,0.05214 -5.66639,0.145011 -1.48014,-0.08026 -2.96183,-0.128838 -4.44405,-0.145694 z M 520.99659,141.1772 c 1.92758,3.68837 3.6318,7.48923 5.10345,11.38202 1.47164,3.89274 2.70808,7.87039 3.70258,11.91144 0.99427,4.04103 1.74485,8.13813 2.24765,12.26919 0.50313,4.13113 0.75759,8.28877 0.762,12.45043 v -19.77555 c 0,-11.05251 -4.52577,-21.04159 -11.81568,-28.23753 z"
         sodipodi:nodetypes="cccccssscssssccsscccscsccccsccsccccscccccccccccccccccccscccccccccccccccccccccccscccsc" /><g
         id="text289"
         style="font-weight:bold;font-size:103.792px;font-family:HYPNUM76R;-inkscape-font-specification:'HYPNUM76R Bold';letter-spacing:0px;white-space:pre;fill:#00ccff;stroke-width:0;stroke-linecap:round;stroke-linejoin:round"
         transform="matrix(1.0283303,0,0,1.0283303,-425.74315,124.71531)"
         aria-label="CACHYOS"><path
           style="fill:#2b2b2b"
           d="m 534.84362,190.97658 h 12.77129 q 8.00739,0 13.68351,5.67612 5.77749,5.57477 5.87885,13.58216 v 0.30408 q 0,2.12854 -1.5204,3.64893 -1.41903,1.41904 -3.54757,1.41904 -2.12855,0 -3.64894,-1.41904 -1.41903,-1.52039 -1.41903,-3.64893 0,-3.95302 -2.73671,-6.68972 -2.7367,-2.7367 -6.68971,-2.7367 h -12.77129 q -3.95301,0 -6.68971,2.7367 -2.73671,2.7367 -2.73671,6.68972 v 28.98878 q 0,3.95301 2.73671,6.68972 2.7367,2.7367 6.68971,2.7367 h 12.77129 q 3.95301,0 6.68971,-2.7367 2.73671,-2.73671 2.73671,-6.68972 0,-2.12855 1.41903,-3.54758 1.52039,-1.52039 3.64894,-1.52039 2.12854,0 3.54757,1.52039 1.5204,1.41903 1.5204,3.54758 0,8.00739 -5.77749,13.78487 -5.77748,5.77749 -13.78487,5.77749 h -12.77129 q -8.00739,0 -13.78487,-5.77749 -5.77748,-5.77748 -5.77748,-13.78487 v -28.98878 q 0,-8.00739 5.77748,-13.78488 5.77748,-5.77748 13.78487,-5.77748 z m 59.59932,0 q 0,0 12.4672,0 0,0 4.35845,0 3.34486,0 4.66253,3.04078 l 12.46721,28.98878 q 0.40543,0.81088 0.40543,2.02719 v 14.49439 14.49439 q 0,2.12855 -1.52039,3.64894 -1.41903,1.41903 -3.54757,1.41903 -2.12855,0 -3.64894,-1.41903 -1.41903,-1.52039 -1.41903,-3.64894 v -9.42642 H 587.0437 v 9.42642 q 0,2.12855 -1.52039,3.64894 -1.41903,1.41903 -3.54758,1.41903 -2.12854,0 -3.64893,-1.41903 -1.41904,-1.52039 -1.41904,-3.64894 v -14.49439 -14.49439 q 0,-1.21631 0.40544,-2.02719 l 12.46721,-28.98878 q 1.31767,-3.04078 4.66253,-3.04078 z m 3.34486,10.13594 -10.7441,24.9344 v 8.41283 h 31.62413 v -8.41283 l -10.7441,-24.9344 z m 60.30882,-10.13594 h 12.77128 q 8.0074,0 13.68352,5.67612 5.77748,5.57477 5.87884,13.58216 v 0.30408 q 0,2.12854 -1.52039,3.64893 -1.41903,1.41904 -3.54757,1.41904 -2.12855,0 -3.64894,-1.41904 -1.41903,-1.52039 -1.41903,-3.64893 0,-3.95302 -2.73671,-6.68972 -2.7367,-2.7367 -6.68972,-2.7367 h -12.77128 q -3.95301,0 -6.68972,2.7367 -2.7367,2.7367 -2.7367,6.68972 v 28.98878 q 0,3.95301 2.7367,6.68972 2.73671,2.7367 6.68972,2.7367 h 12.77128 q 3.95302,0 6.68972,-2.7367 2.73671,-2.73671 2.73671,-6.68972 0,-2.12855 1.41903,-3.54758 1.52039,-1.52039 3.64894,-1.52039 2.12854,0 3.54757,1.52039 1.52039,1.41903 1.52039,3.54758 0,8.00739 -5.77748,13.78487 -5.77748,5.77749 -13.78488,5.77749 h -12.77128 q -8.00739,0 -13.78487,-5.77749 -5.77749,-5.77748 -5.77749,-13.78487 v -28.98878 q 0,-8.00739 5.77749,-13.78488 5.77748,-5.77748 13.78487,-5.77748 z m 43.48318,1.52039 q 1.52039,-1.52039 3.64894,-1.52039 2.12854,0 3.54757,1.52039 1.52039,1.41903 1.52039,3.54758 v 23.92081 h 31.62413 v -23.92081 q 0,-2.02719 1.52039,-3.44622 1.52039,-1.52039 3.54758,-1.52039 2.02719,0 3.54758,1.52039 1.52039,1.41903 1.52039,3.44622 v 57.97756 q 0,2.12855 -1.52039,3.64894 -1.41904,1.41903 -3.54758,1.41903 -2.12855,0 -3.64894,-1.41903 -1.41903,-1.52039 -1.41903,-3.64894 V 230.1013 H 710.2967 v 23.92081 q 0,2.12855 -1.52039,3.64894 -1.41903,1.41903 -3.54757,1.41903 -2.12855,0 -3.64894,-1.41903 -1.41903,-1.52039 -1.41903,-3.64894 v -57.97756 q 0,-2.12855 1.41903,-3.54758 z m 61.62649,0 q 1.52039,-1.52039 3.64894,-1.52039 2.12855,0 3.54758,1.52039 1.52039,1.41903 1.52039,3.54758 v 2.7367 l 15.81206,18.44741 15.81206,-18.44741 v -2.7367 q 0,-2.12855 1.41904,-3.54758 1.52039,-1.52039 3.64893,-1.52039 2.12855,0 3.54758,1.52039 1.52039,1.41903 1.52039,3.54758 v 4.56117 q 0,1.72311 -1.21631,3.2435 l -19.66372,23.00858 v 27.16431 q 0,2.12855 -1.52039,3.64894 -1.41903,1.41903 -3.54758,1.41903 -2.12854,0 -3.64894,-1.41903 -1.41903,-1.52039 -1.41903,-3.64894 V 226.8578 l -19.66372,-23.00858 q -1.21631,-1.52039 -1.21631,-3.2435 v -4.56117 q 0,-2.12855 1.41903,-3.54758 z"
           id="path303" /><path
           style="-inkscape-font-specification:'HYPNUM76R Light';fill:#2b2b2b"
           d="m 856.76101,197.05814 h -14.79847 q -5.16933,0 -8.81827,3.64894 -3.64893,3.64894 -3.64893,8.81826 v 31.01597 q 0,5.16933 3.64893,8.81827 3.64894,3.64894 8.81827,3.64894 h 14.79847 q 5.16933,0 8.81826,-3.64894 3.64894,-3.64894 3.64894,-8.81827 v -31.01597 q 0,-5.16932 -3.64894,-8.81826 -3.64893,-3.64894 -8.81826,-3.64894 z m -14.79847,-6.08156 h 14.79847 0.30408 q 7.50059,0.20272 12.77128,5.4734 5.27068,5.27069 5.4734,12.77129 v 0.30407 31.01597 q 0,7.70331 -5.4734,13.17672 -5.37205,5.37205 -13.07536,5.37205 h -14.79847 q -7.70331,0 -13.17672,-5.37205 -5.37205,-5.47341 -5.37205,-13.17672 v -31.01597 q 0,-7.70331 5.37205,-13.07536 5.47341,-5.4734 13.17672,-5.4734 z m 61.62649,0 h 14.79847 q 0,0 0.30408,0 7.50059,0.20272 12.77128,5.4734 5.27069,5.27069 5.47341,12.77129 v 0.30407 q 0,1.31768 -0.91224,2.22991 -0.81087,0.81087 -2.12854,0.81087 -1.31767,0 -2.22991,-0.81087 -0.81087,-0.91223 -0.81087,-2.22991 0,-5.16932 -3.64894,-8.81826 -3.64894,-3.64894 -8.81827,-3.64894 h -14.79847 q -5.16932,0 -8.81826,3.64894 -3.64894,3.64894 -3.64894,8.81826 0,3.04078 1.31767,4.86525 1.31767,1.72311 4.2571,3.2435 4.25709,2.12855 14.89982,4.45982 11.55497,2.43262 16.52158,5.06796 8.81827,4.56118 8.81827,13.37944 0,7.70331 -5.47341,13.17672 -5.37204,5.37205 -13.07536,5.37205 h -14.79847 q -7.70331,0 -13.17671,-5.37205 -5.37205,-5.47341 -5.37205,-13.17672 0,-1.31767 0.81087,-2.12854 0.91224,-0.91224 2.22991,-0.91224 1.31767,0 2.12855,0.91224 0.91223,0.81087 0.91223,2.12854 0,5.16933 3.64894,8.81827 3.64894,3.64894 8.81826,3.64894 h 14.79847 q 5.16933,0 8.81827,-3.64894 3.64894,-3.64894 3.64894,-8.81827 0,-2.93942 -1.31768,-4.66253 -1.31767,-1.82447 -4.25709,-3.34486 -4.35845,-2.2299 -14.89983,-4.45981 -11.35225,-2.43263 -16.52158,-5.06797 -8.81826,-4.56117 -8.81826,-13.4808 0,-7.70331 5.37205,-13.07536 5.4734,-5.4734 13.17671,-5.4734 z"
           id="path304" /></g></g></g></svg>
