<?xml version="1.0" encoding="UTF-8" standalone="no"?>
<!-- Created with Inkscape (http://www.inkscape.org/) -->

<svg
   width="1920"
   height="1764.5425"
   viewBox="0 0 1920 1764.5425"
   version="1.1"
   id="svg1"
   xml:space="preserve"
   xmlns="http://www.w3.org/2000/svg"
   xmlns:svg="http://www.w3.org/2000/svg"><defs
     id="defs1"><linearGradient
       id="swatch271"><stop
         style="stop-color:#48b899;stop-opacity:1;"
         offset="0"
         id="stop271" /></linearGradient></defs><g
     id="layer1"
     style="display:inline"
     transform="translate(-316,-77.728728)"><g
       id="g649"
       style="display:inline;stroke-width:0.5"
       transform="matrix(2.0000008,0,0,2.0000008,-1276.001,-767.72993)"><path
         id="path628"
         style="display:inline;fill:#2b2b2b;fill-opacity:1;stroke:none;stroke-width:1.15885;stroke-linecap:round;stroke-linejoin:round;stroke-opacity:1"
         d="m 1053.2883,422.72916 c -142.09519,6.7e-4 -257.28573,115.18962 -257.28812,257.28358 v 139.97035 c 0,136.78828 111.23431,257.28781 257.28552,257.28781 h 500.4437 c 111.7106,-4e-4 202.2704,-90.55917 202.2704,-202.26983 v -29.52465 c -0.1401,-15.31327 -4.8275,-30.23952 -13.4672,-42.88361 v 0 c -14.2394,-21.34154 -38.1426,-34.22335 -63.7978,-34.3811 h -162.7349 c -28.7911,0.0728 -53.5768,20.34813 -59.3536,48.55384 l -14.1745,67.95933 c -4.591,22.0431 -23.9556,37.8846 -46.4711,38.01635 h -60.0005 c -17.1521,-0.8152 -32.8054,-13.11605 -36.8183,-30.13706 -11.0036,-46.68163 -22.0084,-93.36324 -33.0122,-140.04485 h -0.03 c -6.4624,-27.42181 -30.933,-46.80046 -59.1063,-46.80806 -19.4728,0.0578 -37.7371,9.44808 -49.1144,25.25096 l -0.1608,-0.0316 -62.4579,86.63311 c -8.2039,10.78534 -24.7857,13.52989 -35.421,2.6432 -9.3414,-9.56223 -7.4272,-22.97813 -2.1286,-29.91311 l 113.8141,-155.57343 0.2891,-0.71117 c 7.2651,-10.04055 12.0088,-21.68145 13.8294,-33.94018 l 8.5308,-38.03646 c 2.4034,-10.17712 11.318,-17.48873 21.7691,-17.85502 h 55.0964 v 0 h 64.904 c 13.2154,0.0352 25.825,5.54579 34.829,15.21967 l 0.2146,0.0948 97.9277,105.78771 0.057,-0.003 c 4.3778,4.73074 10.526,7.42752 16.971,7.44407 7.4073,-0.0239 14.3588,-3.58079 18.7094,-9.57608 l 0.069,-0.003 95.1098,-131.14935 -0.029,-0.0838 c 3.6468,-5.01222 5.6224,-11.04534 5.6474,-17.24372 0,-12.54272 -7.9314,-23.71403 -19.7706,-27.85454 v -0.006 l -177.0937,-61.9159 -0.2592,-0.0904 -0.029,-0.006 c -3.9729,-1.38677 -8.1513,-2.09626 -12.3595,-2.0982 z" /><g
         id="text626"
         style="font-weight:300;font-size:128px;font-family:HYPNUM76R;-inkscape-font-specification:'HYPNUM76R Light';letter-spacing:0px;white-space:pre;fill:#2b2b2b;stroke-width:5.59995"
         transform="matrix(1.7857145,0,0,1.7857142,-64.799547,1144.2858)"
         aria-label="cachyos"><path
           style="-inkscape-font-specification:'HYPNUM76R Bold'"
           d="m 514.97266,6 h 15.75 q 9.875,0 16.875,7 7.125,6.875 7.25,16.75 v 0.375 q 0,2.625 -1.875,4.5 -1.75,1.75 -4.375,1.75 -2.625,0 -4.5,-1.75 -1.75,-1.875 -1.75,-4.5 0,-4.875 -3.375,-8.25 -3.375,-3.375 -8.25,-3.375 h -15.75 q -4.875,0 -8.25,3.375 -3.375,3.375 -3.375,8.25 v 35.75 q 0,4.875 3.375,8.25 3.375,3.375 8.25,3.375 h 15.75 q 4.875,0 8.25,-3.375 3.375,-3.375 3.375,-8.25 0,-2.625 1.75,-4.375 1.875,-1.875 4.5,-1.875 2.625,0 4.375,1.875 1.875,1.75 1.875,4.375 0,9.875 -7.125,17 -7.125,7.125 -17,7.125 h -15.75 q -9.875,0 -17,-7.125 -7.125,-7.125 -7.125,-17 v -35.75 q 0,-9.875 7.125,-17 7.125,-7.125 17,-7.125 z m 73.5,0 q 0,0 15.375,0 0,0 5.375,0 4.125,0 5.75,3.75 l 15.375,35.75 q 0.5,1 0.5,2.5 V 65.875 83.75 q 0,2.625 -1.875,4.5 -1.75,1.75 -4.375,1.75 -2.625,0 -4.5,-1.75 -1.75,-1.875 -1.75,-4.5 V 72.125 h -39 V 83.75 q 0,2.625 -1.875,4.5 -1.75,1.75 -4.375,1.75 -2.625,0 -4.5,-1.75 -1.75,-1.875 -1.75,-4.5 V 65.875 48 q 0,-1.5 0.5,-2.5 l 15.375,-35.75 q 1.625,-3.75 5.75,-3.75 z m 4.125,12.5 -13.25,30.75 v 10.375 h 39 V 49.25 l -13.25,-30.75 z M 666.97266,6 h 15.75 q 9.875,0 16.875,7 7.125,6.875 7.25,16.75 v 0.375 q 0,2.625 -1.875,4.5 -1.75,1.75 -4.375,1.75 -2.625,0 -4.5,-1.75 -1.75,-1.875 -1.75,-4.5 0,-4.875 -3.375,-8.25 -3.375,-3.375 -8.25,-3.375 h -15.75 q -4.875,0 -8.25,3.375 -3.375,3.375 -3.375,8.25 v 35.75 q 0,4.875 3.375,8.25 3.375,3.375 8.25,3.375 h 15.75 q 4.875,0 8.25,-3.375 3.375,-3.375 3.375,-8.25 0,-2.625 1.75,-4.375 1.875,-1.875 4.5,-1.875 2.625,0 4.375,1.875 1.875,1.75 1.875,4.375 0,9.875 -7.125,17 -7.125,7.125 -17,7.125 h -15.75 q -9.875,0 -17,-7.125 -7.125,-7.125 -7.125,-17 v -35.75 q 0,-9.875 7.125,-17 7.125,-7.125 17,-7.125 z m 53.625,1.875 q 1.875,-1.875 4.5,-1.875 2.625,0 4.375,1.875 1.875,1.75 1.875,4.375 v 29.5 h 39 v -29.5 q 0,-2.5 1.875,-4.25 1.875,-1.875 4.375,-1.875 2.5,0 4.375,1.875 1.875,1.75 1.875,4.25 v 71.5 q 0,2.625 -1.875,4.5 -1.75,1.75 -4.375,1.75 -2.625,0 -4.5,-1.75 -1.75,-1.875 -1.75,-4.5 v -29.5 h -39 v 29.5 q 0,2.625 -1.875,4.5 -1.75,1.75 -4.375,1.75 -2.625,0 -4.5,-1.75 -1.75,-1.875 -1.75,-4.5 v -71.5 q 0,-2.625 1.75,-4.375 z m 76,0 q 1.875,-1.875 4.5,-1.875 2.625,0 4.375,1.875 1.875,1.75 1.875,4.375 v 3.375 l 19.5,22.75 19.5,-22.75 V 12.25 q 0,-2.625 1.75,-4.375 1.875,-1.875 4.5,-1.875 2.625,0 4.375,1.875 1.875,1.75 1.875,4.375 v 5.625 q 0,2.125 -1.5,4 l -24.25,28.375 v 33.5 q 0,2.625 -1.875,4.5 -1.75,1.75 -4.375,1.75 -2.625,0 -4.5,-1.75 -1.75,-1.875 -1.75,-4.5 v -33.5 l -24.25,-28.375 q -1.5,-1.875 -1.5,-4 V 12.25 q 0,-2.625 1.75,-4.375 z"
           id="path649" /><path
           d="m 911.97266,13.5 h -18.25 q -6.375,0 -10.875,4.5 -4.5,4.5 -4.5,10.875 v 38.25 q 0,6.375 4.5,10.875 4.5,4.5 10.875,4.5 h 18.25 q 6.375,0 10.875,-4.5 4.5,-4.5 4.5,-10.875 v -38.25 q 0,-6.375 -4.5,-10.875 -4.5,-4.5 -10.875,-4.5 z m -18.25,-7.5 h 18.25 0.375 q 9.25,0.25 15.75,6.75 6.5,6.5 6.75,15.75 v 0.375 38.25 q 0,9.5 -6.75,16.25 -6.625,6.625 -16.125,6.625 h -18.25 q -9.5,0 -16.25,-6.625 -6.625,-6.75 -6.625,-16.25 v -38.25 q 0,-9.5 6.625,-16.125 6.75,-6.75 16.25,-6.75 z m 76,0 h 18.25 q 0,0 0.375,0 9.25,0.25 15.75004,6.75 6.5,6.5 6.75,15.75 v 0.375 q 0,1.625 -1.125,2.75 -1,1 -2.625,1 -1.625,0 -2.75,-1 -1,-1.125 -1,-2.75 0,-6.375 -4.50004,-10.875 -4.5,-4.5 -10.875,-4.5 h -18.25 q -6.375,0 -10.875,4.5 -4.5,4.5 -4.5,10.875 0,3.75 1.625,6 1.625,2.125 5.25,4 5.25,2.625 18.375,5.5 14.25,3 20.375,6.25 10.87504,5.625 10.87504,16.5 0,9.5 -6.75,16.25 Q 997.47266,90 987.97266,90 h -18.25 q -9.5,0 -16.25,-6.625 -6.625,-6.75 -6.625,-16.25 0,-1.625 1,-2.625 1.125,-1.125 2.75,-1.125 1.625,0 2.625,1.125 1.125,1 1.125,2.625 0,6.375 4.5,10.875 4.5,4.5 10.875,4.5 h 18.25 q 6.375,0 10.875,-4.5 4.50004,-4.5 4.50004,-10.875 0,-3.625 -1.625,-5.75 -1.625,-2.25 -5.25004,-4.125 -5.375,-2.75 -18.375,-5.5 -14,-3 -20.375,-6.25 -10.875,-5.625 -10.875,-16.625 0,-9.5 6.625,-16.125 6.75,-6.75 16.25,-6.75 z"
           id="path650" /></g></g></g></svg>
