<?xml version="1.0" encoding="UTF-8" standalone="no"?>
<!-- Created with Inkscape (http://www.inkscape.org/) -->

<svg
   width="1238.0952"
   height="1240"
   viewBox="0 0 1238.0952 1240"
   version="1.1"
   id="svg1"
   xml:space="preserve"
   sodipodi:docname="cachyOS_logo_fan-made.svg"
   inkscape:version="1.4 (e7c3feb100, 2024-10-09)"
   xmlns:inkscape="http://www.inkscape.org/namespaces/inkscape"
   xmlns:sodipodi="http://sodipodi.sourceforge.net/DTD/sodipodi-0.dtd"
   xmlns="http://www.w3.org/2000/svg"
   xmlns:svg="http://www.w3.org/2000/svg"><sodipodi:namedview
     id="namedview1"
     pagecolor="#ffffff"
     bordercolor="#000000"
     borderopacity="0.25"
     inkscape:showpageshadow="2"
     inkscape:pageopacity="0.0"
     inkscape:pagecheckerboard="0"
     inkscape:deskcolor="#d1d1d1"
     inkscape:zoom="0.56"
     inkscape:cx="578.57143"
     inkscape:cy="637.5"
     inkscape:window-width="1920"
     inkscape:window-height="1011"
     inkscape:window-x="0"
     inkscape:window-y="32"
     inkscape:window-maximized="1"
     inkscape:current-layer="text289" /><defs
     id="defs1" /><g
     id="layer1"
     transform="translate(-660.9524,-340)"><g
       id="g289"
       transform="matrix(2.8553816,0,0,2.8553816,363.60384,463.13037)"
       style="fill:#2b2b2b;fill-opacity:1"><g
         id="text289"
         style="font-weight:bold;font-size:103.792px;font-family:HYPNUM76R;-inkscape-font-specification:'HYPNUM76R Bold';letter-spacing:0px;white-space:pre;fill:#00ccff;stroke-width:0;stroke-linecap:round;stroke-linejoin:round"
         transform="matrix(1.0283303,0,0,1.0283303,-425.74315,124.71531)"
         aria-label="CACHYOS"><path
           style="fill:#2b2b2b"
           d="m 534.84362,190.97658 h 12.77129 q 8.00739,0 13.68351,5.67612 5.77749,5.57477 5.87885,13.58216 v 0.30408 q 0,2.12854 -1.5204,3.64893 -1.41903,1.41904 -3.54757,1.41904 -2.12855,0 -3.64894,-1.41904 -1.41903,-1.52039 -1.41903,-3.64893 0,-3.95302 -2.73671,-6.68972 -2.7367,-2.7367 -6.68971,-2.7367 h -12.77129 q -3.95301,0 -6.68971,2.7367 -2.73671,2.7367 -2.73671,6.68972 v 28.98878 q 0,3.95301 2.73671,6.68972 2.7367,2.7367 6.68971,2.7367 h 12.77129 q 3.95301,0 6.68971,-2.7367 2.73671,-2.73671 2.73671,-6.68972 0,-2.12855 1.41903,-3.54758 1.52039,-1.52039 3.64894,-1.52039 2.12854,0 3.54757,1.52039 1.5204,1.41903 1.5204,3.54758 0,8.00739 -5.77749,13.78487 -5.77748,5.77749 -13.78487,5.77749 h -12.77129 q -8.00739,0 -13.78487,-5.77749 -5.77748,-5.77748 -5.77748,-13.78487 v -28.98878 q 0,-8.00739 5.77748,-13.78488 5.77748,-5.77748 13.78487,-5.77748 z m 59.59932,0 q 0,0 12.4672,0 0,0 4.35845,0 3.34486,0 4.66253,3.04078 l 12.46721,28.98878 q 0.40543,0.81088 0.40543,2.02719 v 14.49439 14.49439 q 0,2.12855 -1.52039,3.64894 -1.41903,1.41903 -3.54757,1.41903 -2.12855,0 -3.64894,-1.41903 -1.41903,-1.52039 -1.41903,-3.64894 v -9.42642 H 587.0437 v 9.42642 q 0,2.12855 -1.52039,3.64894 -1.41903,1.41903 -3.54758,1.41903 -2.12854,0 -3.64893,-1.41903 -1.41904,-1.52039 -1.41904,-3.64894 v -14.49439 -14.49439 q 0,-1.21631 0.40544,-2.02719 l 12.46721,-28.98878 q 1.31767,-3.04078 4.66253,-3.04078 z m 3.34486,10.13594 -10.7441,24.9344 v 8.41283 h 31.62413 v -8.41283 l -10.7441,-24.9344 z m 60.30882,-10.13594 h 12.77128 q 8.0074,0 13.68352,5.67612 5.77748,5.57477 5.87884,13.58216 v 0.30408 q 0,2.12854 -1.52039,3.64893 -1.41903,1.41904 -3.54757,1.41904 -2.12855,0 -3.64894,-1.41904 -1.41903,-1.52039 -1.41903,-3.64893 0,-3.95302 -2.73671,-6.68972 -2.7367,-2.7367 -6.68972,-2.7367 h -12.77128 q -3.95301,0 -6.68972,2.7367 -2.7367,2.7367 -2.7367,6.68972 v 28.98878 q 0,3.95301 2.7367,6.68972 2.73671,2.7367 6.68972,2.7367 h 12.77128 q 3.95302,0 6.68972,-2.7367 2.73671,-2.73671 2.73671,-6.68972 0,-2.12855 1.41903,-3.54758 1.52039,-1.52039 3.64894,-1.52039 2.12854,0 3.54757,1.52039 1.52039,1.41903 1.52039,3.54758 0,8.00739 -5.77748,13.78487 -5.77748,5.77749 -13.78488,5.77749 h -12.77128 q -8.00739,0 -13.78487,-5.77749 -5.77749,-5.77748 -5.77749,-13.78487 v -28.98878 q 0,-8.00739 5.77749,-13.78488 5.77748,-5.77748 13.78487,-5.77748 z m 43.48318,1.52039 q 1.52039,-1.52039 3.64894,-1.52039 2.12854,0 3.54757,1.52039 1.52039,1.41903 1.52039,3.54758 v 23.92081 h 31.62413 v -23.92081 q 0,-2.02719 1.52039,-3.44622 1.52039,-1.52039 3.54758,-1.52039 2.02719,0 3.54758,1.52039 1.52039,1.41903 1.52039,3.44622 v 57.97756 q 0,2.12855 -1.52039,3.64894 -1.41904,1.41903 -3.54758,1.41903 -2.12855,0 -3.64894,-1.41903 -1.41903,-1.52039 -1.41903,-3.64894 V 230.1013 H 710.2967 v 23.92081 q 0,2.12855 -1.52039,3.64894 -1.41903,1.41903 -3.54757,1.41903 -2.12855,0 -3.64894,-1.41903 -1.41903,-1.52039 -1.41903,-3.64894 v -57.97756 q 0,-2.12855 1.41903,-3.54758 z m 61.62649,0 q 1.52039,-1.52039 3.64894,-1.52039 2.12855,0 3.54758,1.52039 1.52039,1.41903 1.52039,3.54758 v 2.7367 l 15.81206,18.44741 15.81206,-18.44741 v -2.7367 q 0,-2.12855 1.41904,-3.54758 1.52039,-1.52039 3.64893,-1.52039 2.12855,0 3.54758,1.52039 1.52039,1.41903 1.52039,3.54758 v 4.56117 q 0,1.72311 -1.21631,3.2435 l -19.66372,23.00858 v 27.16431 q 0,2.12855 -1.52039,3.64894 -1.41903,1.41903 -3.54758,1.41903 -2.12854,0 -3.64894,-1.41903 -1.41903,-1.52039 -1.41903,-3.64894 V 226.8578 l -19.66372,-23.00858 q -1.21631,-1.52039 -1.21631,-3.2435 v -4.56117 q 0,-2.12855 1.41903,-3.54758 z"
           id="path303" /><path
           style="-inkscape-font-specification:'HYPNUM76R Light';fill:#2b2b2b"
           d="m 856.76101,197.05814 h -14.79847 q -5.16933,0 -8.81827,3.64894 -3.64893,3.64894 -3.64893,8.81826 v 31.01597 q 0,5.16933 3.64893,8.81827 3.64894,3.64894 8.81827,3.64894 h 14.79847 q 5.16933,0 8.81826,-3.64894 3.64894,-3.64894 3.64894,-8.81827 v -31.01597 q 0,-5.16932 -3.64894,-8.81826 -3.64893,-3.64894 -8.81826,-3.64894 z m -14.79847,-6.08156 h 14.79847 0.30408 q 7.50059,0.20272 12.77128,5.4734 5.27068,5.27069 5.4734,12.77129 v 0.30407 31.01597 q 0,7.70331 -5.4734,13.17672 -5.37205,5.37205 -13.07536,5.37205 h -14.79847 q -7.70331,0 -13.17672,-5.37205 -5.37205,-5.47341 -5.37205,-13.17672 v -31.01597 q 0,-7.70331 5.37205,-13.07536 5.47341,-5.4734 13.17672,-5.4734 z m 61.62649,0 h 14.79847 q 0,0 0.30408,0 7.50059,0.20272 12.77128,5.4734 5.27069,5.27069 5.47341,12.77129 v 0.30407 q 0,1.31768 -0.91224,2.22991 -0.81087,0.81087 -2.12854,0.81087 -1.31767,0 -2.22991,-0.81087 -0.81087,-0.91223 -0.81087,-2.22991 0,-5.16932 -3.64894,-8.81826 -3.64894,-3.64894 -8.81827,-3.64894 h -14.79847 q -5.16932,0 -8.81826,3.64894 -3.64894,3.64894 -3.64894,8.81826 0,3.04078 1.31767,4.86525 1.31767,1.72311 4.2571,3.2435 4.25709,2.12855 14.89982,4.45982 11.55497,2.43262 16.52158,5.06796 8.81827,4.56118 8.81827,13.37944 0,7.70331 -5.47341,13.17672 -5.37204,5.37205 -13.07536,5.37205 h -14.79847 q -7.70331,0 -13.17671,-5.37205 -5.37205,-5.47341 -5.37205,-13.17672 0,-1.31767 0.81087,-2.12854 0.91224,-0.91224 2.22991,-0.91224 1.31767,0 2.12855,0.91224 0.91223,0.81087 0.91223,2.12854 0,5.16933 3.64894,8.81827 3.64894,3.64894 8.81826,3.64894 h 14.79847 q 5.16933,0 8.81827,-3.64894 3.64894,-3.64894 3.64894,-8.81827 0,-2.93942 -1.31768,-4.66253 -1.31767,-1.82447 -4.25709,-3.34486 -4.35845,-2.2299 -14.89983,-4.45981 -11.35225,-2.43263 -16.52158,-5.06797 -8.81826,-4.56117 -8.81826,-13.4808 0,-7.70331 5.37205,-13.07536 5.4734,-5.4734 13.17671,-5.4734 z"
           id="path304" /><path
           id="path1"
           style="font-weight:bold;font-size:103.792px;font-family:HYPNUM76R;-inkscape-font-specification:'HYPNUM76R Bold';letter-spacing:0px;white-space:pre;display:inline;fill:#2b2b2b;fill-opacity:1;stroke-width:0;stroke-linecap:round;stroke-linejoin:round"
           d="m 621.37003,-162.81765 c -55.79957,1.2e-4 -101.03402,45.23457 -101.03416,101.034139 -0.31907,41.591024 0.22386,83.262933 0,124.878548 1.4e-4,55.799573 45.23459,101.034023 101.03416,101.034123 69.83389,0.0692 139.72563,0.0276 209.58076,0 55.79961,-1.3e-4 101.03406,-45.23455 101.03416,-101.034153 -0.007,-6.41003 0,-12.82053 0,-19.23073 0,-21.314826 -17.27907,-38.5938941 -38.59389,-38.5938941 H 811.71939 C 794.21265,5.2993329 778.91831,17.10851 774.46117,34.038359 l -0.0805,0.06253 -8.24613,32.780958 c -3.31777,10.30554 -11.52041,17.81795 -23.40203,17.81795 -2.67965,0 -6.83924,-0.67559 -10.98197,-2.99526 -3.74233,-2.09545 -7.45094,-5.55367 -10.05805,-11.37513 -1.07578,-2.40205 -1.98091,-5.15472 -2.59751,-8.40043 0,0 -4.58015,-25.557218 -6.7681,-38.290561 l -1.07759,-6.605817 c -1.0172,-6.238175 -3.24349,-15.1175541 -7.99669,-20.0954931 -3.39413,-3.554639 -7.73463,-6.114345 -12.61496,-7.3208729 -2.04467,-0.531251 -4.13912,-0.816443 -6.24993,-0.850738 -6.2709,0 -12.33297,2.2543189 -17.08297,6.3483829 l -0.005,-0.0034 -31.13264,25.4860291 -0.0938,-0.108402 c -1.57492,1.308324 -3.54463,2.048071 -5.59142,2.099939 -5.03216,0 -9.11151,-4.079386 -9.11151,-9.111509 0.0215,-2.516419 1.0827,-4.9118691 2.93208,-6.6184531 l -0.0366,-0.04325 57.93045,-54.0557609 c 1.69405,-2.524525 9.93868,-8.881762 15.55171,-23.172574 3.5624,-8.845478 6.8074,-17.887828 10.15981,-26.835657 1.19444,-2.564566 3.22855,-4.50814 5.63731,-5.78101 1.72416,-0.9111 3.61605,-1.52454 5.64065,-1.56448 h 9.29511 27.56135 c 3.95627,0.009 7.53526,2.34944 9.12881,5.970581 l 0.0313,0.01996 17.85319,40.796939 0.0106,0.0041 c 1.59161,3.63406 5.18279,5.983328 9.1501,5.987211 1.62253,-0.0092 3.2186,-0.41304 4.65021,-1.176695 l 0.0313,0.01056 70.40637,-37.317426 v -0.04922 c 5.2759,-2.797687 8.58111,-8.27421 8.59797,-14.24596 0,-5.37441 -2.6693,-10.39757 -7.12331,-13.4052 v -0.002 l -57.93237,-39.11737 -0.0119,-0.004 c -5.49983,-3.71003 -11.98297,-5.69329 -18.61811,-5.69453 v -6.8e-4 c -56.68924,-0.89034 -170.84622,0.002 -170.84622,6.8e-4 z"
           sodipodi:nodetypes="cccccsssccccssscccscccccccccccccscccccccccccccccccccc" /></g></g></g></svg>
