<?xml version="1.0" encoding="UTF-8" standalone="no"?>
<!-- Created with Inkscape (http://www.inkscape.org/) -->

<svg
   width="1238.0952"
   height="1240"
   viewBox="0 0 1238.0952 1240"
   version="1.1"
   id="svg1"
   xml:space="preserve"
   xmlns="http://www.w3.org/2000/svg"
   xmlns:svg="http://www.w3.org/2000/svg"><defs
     id="defs1" /><g
     id="layer1"
     transform="translate(-660.9524,-340)"><g
       id="g289"
       transform="matrix(2.8553816,0,0,2.8553816,363.60384,463.13037)"
       style="fill:#2b2b2b;fill-opacity:1"><path
         id="path285"
         style="opacity:1;fill:#2b2b2b;fill-opacity:1;stroke-width:0;stroke-linecap:round;stroke-linejoin:round"
         d="M 389.08164,-43.122209 H 223.50655 c -62.96345,0 -114.00569,51.5794441 -114.00672,114.542892 v 0.002 107.653217 0.006 c 0.003,62.96199 51.04472,114.00115 114.00672,114.00115 l 234.99783,0.002 c 5.16978,-0.006 10.15852,-1.90428 14.02446,-5.33665 l 0.0427,-0.0167 45.20374,-40.23078 -0.0148,-0.0371 c 9.28163,-8.2524 14.5982,-20.07511 14.61267,-32.49488 5e-4,-24.05247 -19.49795,-43.55098 -43.55042,-43.55041 h -60.94276 c -7.57207,0.0364 -15.0038,2.04658 -21.56182,5.83208 l -0.38596,0.1039 -59.52695,34.73086 -0.38781,-0.18184 c -3.10536,1.88723 -6.64441,2.94293 -10.2762,3.06541 -1.37583,-0.12966 -2.73566,-0.3938 -4.05999,-0.78862 -8.33612,-1.77674 -14.79242,-8.38153 -16.37919,-16.75587 l -0.44534,-0.20968 -7.92703,-48.59759 -2.16545,-13.27852 -0.008,-0.002 c -2.12429,-13.01691 -13.36792,-22.57699 -26.55704,-22.58053 -6.44851,6.6e-4 -12.68221,2.31787 -17.56676,6.52793 l -0.006,-0.002 -55.96609,48.23205 -0.21339,-0.24309 c -1.776,1.64911 -4.07749,2.6178 -6.49823,2.73512 -5.67853,1.8e-4 -10.28194,-4.60322 -10.28176,-10.28175 0.12727,-2.85473 1.43686,-5.5277 3.61467,-7.37778 l -0.22267,-0.25422 79.65996,-71.907358 0.3303,-0.456473 c 0.91037,-0.963919 1.79336,-1.953332 2.64791,-2.967071 5.86345,-5.857708 10.64746,-12.703955 14.13209,-20.223948 l 0.12246,-0.168854 14.069,-31.826878 0.36368,-0.23566 c 2.10741,-4.524909 6.60675,-7.4556 11.59737,-7.55406 h 9.55808 28.3421 c 4.06834,0.0095 7.74866,2.416391 9.38737,6.140115 l 0.0315,0.02047 18.3591,41.952763 0.013,0.004 c 1.63667,3.73703 5.32807,6.152821 9.40778,6.156801 1.6685,-0.0095 3.30966,-0.424519 4.78182,-1.209832 l 0.0315,0.01107 72.40095,-38.3752 0.002,-0.05007 c 5.42535,-2.876951 8.82447,-8.508853 8.84183,-14.649787 -4.7e-4,-5.52666 -2.74562,-10.6922579 -7.32583,-13.7850979 v -0.002 l -59.57334,-40.2252191 -0.013,-0.0037 c -5.6555,-3.81711 -12.3226,-5.856956 -19.1457,-5.858223 z" /><g
         id="text289"
         style="font-weight:bold;font-size:103.792px;font-family:HYPNUM76R;-inkscape-font-specification:'HYPNUM76R Bold';letter-spacing:0px;white-space:pre;fill:#00ccff;stroke-width:0;stroke-linecap:round;stroke-linejoin:round"
         transform="matrix(1.0283303,0,0,1.0283303,-425.74315,124.71531)"
         aria-label="CACHYOS"><path
           style="fill:#2b2b2b"
           d="m 534.84362,190.97658 h 12.77129 q 8.00739,0 13.68351,5.67612 5.77749,5.57477 5.87885,13.58216 v 0.30408 q 0,2.12854 -1.5204,3.64893 -1.41903,1.41904 -3.54757,1.41904 -2.12855,0 -3.64894,-1.41904 -1.41903,-1.52039 -1.41903,-3.64893 0,-3.95302 -2.73671,-6.68972 -2.7367,-2.7367 -6.68971,-2.7367 h -12.77129 q -3.95301,0 -6.68971,2.7367 -2.73671,2.7367 -2.73671,6.68972 v 28.98878 q 0,3.95301 2.73671,6.68972 2.7367,2.7367 6.68971,2.7367 h 12.77129 q 3.95301,0 6.68971,-2.7367 2.73671,-2.73671 2.73671,-6.68972 0,-2.12855 1.41903,-3.54758 1.52039,-1.52039 3.64894,-1.52039 2.12854,0 3.54757,1.52039 1.5204,1.41903 1.5204,3.54758 0,8.00739 -5.77749,13.78487 -5.77748,5.77749 -13.78487,5.77749 h -12.77129 q -8.00739,0 -13.78487,-5.77749 -5.77748,-5.77748 -5.77748,-13.78487 v -28.98878 q 0,-8.00739 5.77748,-13.78488 5.77748,-5.77748 13.78487,-5.77748 z m 59.59932,0 q 0,0 12.4672,0 0,0 4.35845,0 3.34486,0 4.66253,3.04078 l 12.46721,28.98878 q 0.40543,0.81088 0.40543,2.02719 v 14.49439 14.49439 q 0,2.12855 -1.52039,3.64894 -1.41903,1.41903 -3.54757,1.41903 -2.12855,0 -3.64894,-1.41903 -1.41903,-1.52039 -1.41903,-3.64894 v -9.42642 H 587.0437 v 9.42642 q 0,2.12855 -1.52039,3.64894 -1.41903,1.41903 -3.54758,1.41903 -2.12854,0 -3.64893,-1.41903 -1.41904,-1.52039 -1.41904,-3.64894 v -14.49439 -14.49439 q 0,-1.21631 0.40544,-2.02719 l 12.46721,-28.98878 q 1.31767,-3.04078 4.66253,-3.04078 z m 3.34486,10.13594 -10.7441,24.9344 v 8.41283 h 31.62413 v -8.41283 l -10.7441,-24.9344 z m 60.30882,-10.13594 h 12.77128 q 8.0074,0 13.68352,5.67612 5.77748,5.57477 5.87884,13.58216 v 0.30408 q 0,2.12854 -1.52039,3.64893 -1.41903,1.41904 -3.54757,1.41904 -2.12855,0 -3.64894,-1.41904 -1.41903,-1.52039 -1.41903,-3.64893 0,-3.95302 -2.73671,-6.68972 -2.7367,-2.7367 -6.68972,-2.7367 h -12.77128 q -3.95301,0 -6.68972,2.7367 -2.7367,2.7367 -2.7367,6.68972 v 28.98878 q 0,3.95301 2.7367,6.68972 2.73671,2.7367 6.68972,2.7367 h 12.77128 q 3.95302,0 6.68972,-2.7367 2.73671,-2.73671 2.73671,-6.68972 0,-2.12855 1.41903,-3.54758 1.52039,-1.52039 3.64894,-1.52039 2.12854,0 3.54757,1.52039 1.52039,1.41903 1.52039,3.54758 0,8.00739 -5.77748,13.78487 -5.77748,5.77749 -13.78488,5.77749 h -12.77128 q -8.00739,0 -13.78487,-5.77749 -5.77749,-5.77748 -5.77749,-13.78487 v -28.98878 q 0,-8.00739 5.77749,-13.78488 5.77748,-5.77748 13.78487,-5.77748 z m 43.48318,1.52039 q 1.52039,-1.52039 3.64894,-1.52039 2.12854,0 3.54757,1.52039 1.52039,1.41903 1.52039,3.54758 v 23.92081 h 31.62413 v -23.92081 q 0,-2.02719 1.52039,-3.44622 1.52039,-1.52039 3.54758,-1.52039 2.02719,0 3.54758,1.52039 1.52039,1.41903 1.52039,3.44622 v 57.97756 q 0,2.12855 -1.52039,3.64894 -1.41904,1.41903 -3.54758,1.41903 -2.12855,0 -3.64894,-1.41903 -1.41903,-1.52039 -1.41903,-3.64894 V 230.1013 H 710.2967 v 23.92081 q 0,2.12855 -1.52039,3.64894 -1.41903,1.41903 -3.54757,1.41903 -2.12855,0 -3.64894,-1.41903 -1.41903,-1.52039 -1.41903,-3.64894 v -57.97756 q 0,-2.12855 1.41903,-3.54758 z m 61.62649,0 q 1.52039,-1.52039 3.64894,-1.52039 2.12855,0 3.54758,1.52039 1.52039,1.41903 1.52039,3.54758 v 2.7367 l 15.81206,18.44741 15.81206,-18.44741 v -2.7367 q 0,-2.12855 1.41904,-3.54758 1.52039,-1.52039 3.64893,-1.52039 2.12855,0 3.54758,1.52039 1.52039,1.41903 1.52039,3.54758 v 4.56117 q 0,1.72311 -1.21631,3.2435 l -19.66372,23.00858 v 27.16431 q 0,2.12855 -1.52039,3.64894 -1.41903,1.41903 -3.54758,1.41903 -2.12854,0 -3.64894,-1.41903 -1.41903,-1.52039 -1.41903,-3.64894 V 226.8578 l -19.66372,-23.00858 q -1.21631,-1.52039 -1.21631,-3.2435 v -4.56117 q 0,-2.12855 1.41903,-3.54758 z"
           id="path303" /><path
           style="-inkscape-font-specification:'HYPNUM76R Light';fill:#2b2b2b"
           d="m 856.76101,197.05814 h -14.79847 q -5.16933,0 -8.81827,3.64894 -3.64893,3.64894 -3.64893,8.81826 v 31.01597 q 0,5.16933 3.64893,8.81827 3.64894,3.64894 8.81827,3.64894 h 14.79847 q 5.16933,0 8.81826,-3.64894 3.64894,-3.64894 3.64894,-8.81827 v -31.01597 q 0,-5.16932 -3.64894,-8.81826 -3.64893,-3.64894 -8.81826,-3.64894 z m -14.79847,-6.08156 h 14.79847 0.30408 q 7.50059,0.20272 12.77128,5.4734 5.27068,5.27069 5.4734,12.77129 v 0.30407 31.01597 q 0,7.70331 -5.4734,13.17672 -5.37205,5.37205 -13.07536,5.37205 h -14.79847 q -7.70331,0 -13.17672,-5.37205 -5.37205,-5.47341 -5.37205,-13.17672 v -31.01597 q 0,-7.70331 5.37205,-13.07536 5.47341,-5.4734 13.17672,-5.4734 z m 61.62649,0 h 14.79847 q 0,0 0.30408,0 7.50059,0.20272 12.77128,5.4734 5.27069,5.27069 5.47341,12.77129 v 0.30407 q 0,1.31768 -0.91224,2.22991 -0.81087,0.81087 -2.12854,0.81087 -1.31767,0 -2.22991,-0.81087 -0.81087,-0.91223 -0.81087,-2.22991 0,-5.16932 -3.64894,-8.81826 -3.64894,-3.64894 -8.81827,-3.64894 h -14.79847 q -5.16932,0 -8.81826,3.64894 -3.64894,3.64894 -3.64894,8.81826 0,3.04078 1.31767,4.86525 1.31767,1.72311 4.2571,3.2435 4.25709,2.12855 14.89982,4.45982 11.55497,2.43262 16.52158,5.06796 8.81827,4.56118 8.81827,13.37944 0,7.70331 -5.47341,13.17672 -5.37204,5.37205 -13.07536,5.37205 h -14.79847 q -7.70331,0 -13.17671,-5.37205 -5.37205,-5.47341 -5.37205,-13.17672 0,-1.31767 0.81087,-2.12854 0.91224,-0.91224 2.22991,-0.91224 1.31767,0 2.12855,0.91224 0.91223,0.81087 0.91223,2.12854 0,5.16933 3.64894,8.81827 3.64894,3.64894 8.81826,3.64894 h 14.79847 q 5.16933,0 8.81827,-3.64894 3.64894,-3.64894 3.64894,-8.81827 0,-2.93942 -1.31768,-4.66253 -1.31767,-1.82447 -4.25709,-3.34486 -4.35845,-2.2299 -14.89983,-4.45981 -11.35225,-2.43263 -16.52158,-5.06797 -8.81826,-4.56117 -8.81826,-13.4808 0,-7.70331 5.37205,-13.07536 5.4734,-5.4734 13.17671,-5.4734 z"
           id="path304" /></g></g></g></svg>
