<?xml version="1.0" encoding="UTF-8" standalone="no"?>
<!-- Created with Inkscape (http://www.inkscape.org/) -->

<svg
   width="1238.0952"
   height="1240"
   viewBox="0 0 1238.0952 1240"
   version="1.1"
   id="svg1"
   xml:space="preserve"
   sodipodi:docname="cachyOS_logo_fan-made.svg"
   inkscape:version="1.4 (e7c3feb100, 2024-10-09)"
   xmlns:inkscape="http://www.inkscape.org/namespaces/inkscape"
   xmlns:sodipodi="http://sodipodi.sourceforge.net/DTD/sodipodi-0.dtd"
   xmlns="http://www.w3.org/2000/svg"
   xmlns:svg="http://www.w3.org/2000/svg"><sodipodi:namedview
     id="namedview1"
     pagecolor="#ffffff"
     bordercolor="#000000"
     borderopacity="0.25"
     inkscape:showpageshadow="2"
     inkscape:pageopacity="0.0"
     inkscape:pagecheckerboard="0"
     inkscape:deskcolor="#d1d1d1"
     inkscape:zoom="0.56"
     inkscape:cx="578.57143"
     inkscape:cy="637.5"
     inkscape:window-width="1920"
     inkscape:window-height="1011"
     inkscape:window-x="0"
     inkscape:window-y="32"
     inkscape:window-maximized="1"
     inkscape:current-layer="text289" /><defs
     id="defs1" /><g
     id="layer1"
     transform="translate(-660.9524,-340)"><g
       id="g289"
       transform="matrix(2.8553816,0,0,2.8553816,363.60384,463.13037)"
       style="fill:#2b2b2b;fill-opacity:1"><g
         id="text289"
         style="font-weight:bold;font-size:103.792px;font-family:HYPNUM76R;-inkscape-font-specification:'HYPNUM76R Bold';letter-spacing:0px;white-space:pre;fill:#00ccff;stroke-width:0;stroke-linecap:round;stroke-linejoin:round"
         transform="matrix(1.0283303,0,0,1.0283303,-425.74315,124.71531)"
         aria-label="CACHYOS"><path
           style="fill:#2b2b2b"
           d="m 534.84362,190.97658 h 12.77129 q 8.00739,0 13.68351,5.67612 5.77749,5.57477 5.87885,13.58216 v 0.30408 q 0,2.12854 -1.5204,3.64893 -1.41903,1.41904 -3.54757,1.41904 -2.12855,0 -3.64894,-1.41904 -1.41903,-1.52039 -1.41903,-3.64893 0,-3.95302 -2.73671,-6.68972 -2.7367,-2.7367 -6.68971,-2.7367 h -12.77129 q -3.95301,0 -6.68971,2.7367 -2.73671,2.7367 -2.73671,6.68972 v 28.98878 q 0,3.95301 2.73671,6.68972 2.7367,2.7367 6.68971,2.7367 h 12.77129 q 3.95301,0 6.68971,-2.7367 2.73671,-2.73671 2.73671,-6.68972 0,-2.12855 1.41903,-3.54758 1.52039,-1.52039 3.64894,-1.52039 2.12854,0 3.54757,1.52039 1.5204,1.41903 1.5204,3.54758 0,8.00739 -5.77749,13.78487 -5.77748,5.77749 -13.78487,5.77749 h -12.77129 q -8.00739,0 -13.78487,-5.77749 -5.77748,-5.77748 -5.77748,-13.78487 v -28.98878 q 0,-8.00739 5.77748,-13.78488 5.77748,-5.77748 13.78487,-5.77748 z m 59.59932,0 q 0,0 12.4672,0 0,0 4.35845,0 3.34486,0 4.66253,3.04078 l 12.46721,28.98878 q 0.40543,0.81088 0.40543,2.02719 v 14.49439 14.49439 q 0,2.12855 -1.52039,3.64894 -1.41903,1.41903 -3.54757,1.41903 -2.12855,0 -3.64894,-1.41903 -1.41903,-1.52039 -1.41903,-3.64894 v -9.42642 H 587.0437 v 9.42642 q 0,2.12855 -1.52039,3.64894 -1.41903,1.41903 -3.54758,1.41903 -2.12854,0 -3.64893,-1.41903 -1.41904,-1.52039 -1.41904,-3.64894 v -14.49439 -14.49439 q 0,-1.21631 0.40544,-2.02719 l 12.46721,-28.98878 q 1.31767,-3.04078 4.66253,-3.04078 z m 3.34486,10.13594 -10.7441,24.9344 v 8.41283 h 31.62413 v -8.41283 l -10.7441,-24.9344 z m 60.30882,-10.13594 h 12.77128 q 8.0074,0 13.68352,5.67612 5.77748,5.57477 5.87884,13.58216 v 0.30408 q 0,2.12854 -1.52039,3.64893 -1.41903,1.41904 -3.54757,1.41904 -2.12855,0 -3.64894,-1.41904 -1.41903,-1.52039 -1.41903,-3.64893 0,-3.95302 -2.73671,-6.68972 -2.7367,-2.7367 -6.68972,-2.7367 h -12.77128 q -3.95301,0 -6.68972,2.7367 -2.7367,2.7367 -2.7367,6.68972 v 28.98878 q 0,3.95301 2.7367,6.68972 2.73671,2.7367 6.68972,2.7367 h 12.77128 q 3.95302,0 6.68972,-2.7367 2.73671,-2.73671 2.73671,-6.68972 0,-2.12855 1.41903,-3.54758 1.52039,-1.52039 3.64894,-1.52039 2.12854,0 3.54757,1.52039 1.52039,1.41903 1.52039,3.54758 0,8.00739 -5.77748,13.78487 -5.77748,5.77749 -13.78488,5.77749 h -12.77128 q -8.00739,0 -13.78487,-5.77749 -5.77749,-5.77748 -5.77749,-13.78487 v -28.98878 q 0,-8.00739 5.77749,-13.78488 5.77748,-5.77748 13.78487,-5.77748 z m 43.48318,1.52039 q 1.52039,-1.52039 3.64894,-1.52039 2.12854,0 3.54757,1.52039 1.52039,1.41903 1.52039,3.54758 v 23.92081 h 31.62413 v -23.92081 q 0,-2.02719 1.52039,-3.44622 1.52039,-1.52039 3.54758,-1.52039 2.02719,0 3.54758,1.52039 1.52039,1.41903 1.52039,3.44622 v 57.97756 q 0,2.12855 -1.52039,3.64894 -1.41904,1.41903 -3.54758,1.41903 -2.12855,0 -3.64894,-1.41903 -1.41903,-1.52039 -1.41903,-3.64894 V 230.1013 H 710.2967 v 23.92081 q 0,2.12855 -1.52039,3.64894 -1.41903,1.41903 -3.54757,1.41903 -2.12855,0 -3.64894,-1.41903 -1.41903,-1.52039 -1.41903,-3.64894 v -57.97756 q 0,-2.12855 1.41903,-3.54758 z m 61.62649,0 q 1.52039,-1.52039 3.64894,-1.52039 2.12855,0 3.54758,1.52039 1.52039,1.41903 1.52039,3.54758 v 2.7367 l 15.81206,18.44741 15.81206,-18.44741 v -2.7367 q 0,-2.12855 1.41904,-3.54758 1.52039,-1.52039 3.64893,-1.52039 2.12855,0 3.54758,1.52039 1.52039,1.41903 1.52039,3.54758 v 4.56117 q 0,1.72311 -1.21631,3.2435 l -19.66372,23.00858 v 27.16431 q 0,2.12855 -1.52039,3.64894 -1.41903,1.41903 -3.54758,1.41903 -2.12854,0 -3.64894,-1.41903 -1.41903,-1.52039 -1.41903,-3.64894 V 226.8578 l -19.66372,-23.00858 q -1.21631,-1.52039 -1.21631,-3.2435 v -4.56117 q 0,-2.12855 1.41903,-3.54758 z"
           id="path303" /><path
           style="-inkscape-font-specification:'HYPNUM76R Light';fill:#2b2b2b"
           d="m 856.76101,197.05814 h -14.79847 q -5.16933,0 -8.81827,3.64894 -3.64893,3.64894 -3.64893,8.81826 v 31.01597 q 0,5.16933 3.64893,8.81827 3.64894,3.64894 8.81827,3.64894 h 14.79847 q 5.16933,0 8.81826,-3.64894 3.64894,-3.64894 3.64894,-8.81827 v -31.01597 q 0,-5.16932 -3.64894,-8.81826 -3.64893,-3.64894 -8.81826,-3.64894 z m -14.79847,-6.08156 h 14.79847 0.30408 q 7.50059,0.20272 12.77128,5.4734 5.27068,5.27069 5.4734,12.77129 v 0.30407 31.01597 q 0,7.70331 -5.4734,13.17672 -5.37205,5.37205 -13.07536,5.37205 h -14.79847 q -7.70331,0 -13.17672,-5.37205 -5.37205,-5.47341 -5.37205,-13.17672 v -31.01597 q 0,-7.70331 5.37205,-13.07536 5.47341,-5.4734 13.17672,-5.4734 z m 61.62649,0 h 14.79847 q 0,0 0.30408,0 7.50059,0.20272 12.77128,5.4734 5.27069,5.27069 5.47341,12.77129 v 0.30407 q 0,1.31768 -0.91224,2.22991 -0.81087,0.81087 -2.12854,0.81087 -1.31767,0 -2.22991,-0.81087 -0.81087,-0.91223 -0.81087,-2.22991 0,-5.16932 -3.64894,-8.81826 -3.64894,-3.64894 -8.81827,-3.64894 h -14.79847 q -5.16932,0 -8.81826,3.64894 -3.64894,3.64894 -3.64894,8.81826 0,3.04078 1.31767,4.86525 1.31767,1.72311 4.2571,3.2435 4.25709,2.12855 14.89982,4.45982 11.55497,2.43262 16.52158,5.06796 8.81827,4.56118 8.81827,13.37944 0,7.70331 -5.47341,13.17672 -5.37204,5.37205 -13.07536,5.37205 h -14.79847 q -7.70331,0 -13.17671,-5.37205 -5.37205,-5.47341 -5.37205,-13.17672 0,-1.31767 0.81087,-2.12854 0.91224,-0.91224 2.22991,-0.91224 1.31767,0 2.12855,0.91224 0.91223,0.81087 0.91223,2.12854 0,5.16933 3.64894,8.81827 3.64894,3.64894 8.81826,3.64894 h 14.79847 q 5.16933,0 8.81827,-3.64894 3.64894,-3.64894 3.64894,-8.81827 0,-2.93942 -1.31768,-4.66253 -1.31767,-1.82447 -4.25709,-3.34486 -4.35845,-2.2299 -14.89983,-4.45981 -11.35225,-2.43263 -16.52158,-5.06797 -8.81826,-4.56117 -8.81826,-13.4808 0,-7.70331 5.37205,-13.07536 5.4734,-5.4734 13.17671,-5.4734 z"
           id="path304" /><path
           id="path109"
           style="display:inline;fill:#2b2b2b;fill-opacity:1;stroke-width:0;stroke-linecap:round;stroke-linejoin:round"
           d="m 621.37005,-162.81672 c -55.79957,1.2e-4 -101.03403,45.23457 -101.03414,101.034138 -0.3191,41.591037 0.22384,83.262888 0,124.87851 10e-5,55.799572 45.23456,101.034052 101.03414,101.034152 69.83383,0.0692 209.58073,7e-5 209.58073,7e-5 53.92805,2e-4 101.03412,-44.68539 101.03412,-101.034152 0,-6.77675 4e-5,-12.45678 4e-5,-19.230731 0,-21.605913 -17.43301,-38.5938767 -38.5939,-38.5938967 h -81.6717 c -17.50673,0.02898 -32.80107,11.8381157 -37.25822,28.7679757 l -0.0805,0.06253 -8.24613,32.780892 c -3.31778,10.30553 -11.52041,17.81791 -23.40203,17.81791 -4.3671,0 -19.07491,-1.60888 -23.63753,-22.77078 0,0 -4.58016,-25.55723 -6.7681,-38.290563 l -1.07759,-6.605814 v 0 c -1.0172,-6.238161 -3.2437,-15.1175837 -7.99686,-20.0955257 -3.39413,-3.554646 -7.73463,-6.114352 -12.61496,-7.3208703 -2.04467,-0.531272 -4.13909,-0.816443 -6.24993,-0.850755 -6.2709,6.81e-4 -12.33297,2.2543193 -17.08293,6.3483933 l -0.005,-0.002 -50.67473,43.6717957 -3.74957,3.2314 v 0 c -1.72707,1.603674 -4.17261,2.309129 -6.52665,2.423216 -6.88968,2.18e-4 -9.9983,-6.202695 -9.99819,-9.998184 0.12377,-2.776085 1.18077,-5.622865 3.29858,-7.421977 v 0 l 62.41964,-56.344633 15.04549,-13.581458 0.32061,-0.444335 c 0.88531,-0.937364 1.74453,-1.899035 2.57555,-2.884845 5.70191,-5.696329 10.35441,-12.354291 13.74312,-19.66711 l 0.11906,-0.164296 13.68121,-30.94974 c 2.15314,-4.042477 5.03383,-7.574967 11.6312,-7.574967 h 35.80703 c 3.95627,0.009 8.41205,2.22598 10.47358,6.627041 5.98836,13.577855 11.63586,26.554723 17.58986,40.160423 l 0.0106,0.004 c 1.59161,3.634076 5.18279,5.983332 9.1501,5.9872 1.62253,-0.0092 3.2186,-0.413006 4.65021,-1.176684 l 0.0313,0.01063 70.40634,-37.31742 v -0.04922 c 5.27587,-2.79769 8.58114,-8.274213 8.598,-14.24597 0,-5.3744 -2.6693,-10.39756 -7.12331,-13.40519 v -0.002 l -57.93237,-39.11736 -0.0126,-0.004 c -5.49983,-3.71014 -11.98284,-5.6938 -18.61798,-5.69504 v -6.8e-4 c -56.8712,-0.89319 -170.84516,2e-5 -170.84516,0 z"
           sodipodi:nodetypes="cccccscssccccsccccscccccccccccccccccccccccccccccccccccc" /></g></g></g></svg>
