<?xml version="1.0" encoding="UTF-8" standalone="no"?>
<!-- Created with Inkscape (http://www.inkscape.org/) -->

<svg
   width="1238.0952"
   height="1240"
   viewBox="0 0 1238.0952 1240"
   version="1.1"
   id="svg1"
   xml:space="preserve"
   sodipodi:docname="cachyOS_logo_fan-made.svg"
   inkscape:version="1.4 (e7c3feb100, 2024-10-09)"
   xmlns:inkscape="http://www.inkscape.org/namespaces/inkscape"
   xmlns:sodipodi="http://sodipodi.sourceforge.net/DTD/sodipodi-0.dtd"
   xmlns="http://www.w3.org/2000/svg"
   xmlns:svg="http://www.w3.org/2000/svg"><sodipodi:namedview
     id="namedview1"
     pagecolor="#ffffff"
     bordercolor="#000000"
     borderopacity="0.25"
     inkscape:showpageshadow="2"
     inkscape:pageopacity="0.0"
     inkscape:pagecheckerboard="0"
     inkscape:deskcolor="#d1d1d1"
     inkscape:zoom="0.56"
     inkscape:cx="577.67857"
     inkscape:cy="494.64286"
     inkscape:window-width="1920"
     inkscape:window-height="1011"
     inkscape:window-x="0"
     inkscape:window-y="32"
     inkscape:window-maximized="1"
     inkscape:current-layer="text289" /><defs
     id="defs1" /><g
     id="layer1"
     transform="translate(-660.9524,-340)"><g
       id="g289"
       transform="matrix(2.8553816,0,0,2.8553816,363.60384,463.13037)"
       style="fill:#2b2b2b;fill-opacity:1"><g
         id="text289"
         style="font-weight:bold;font-size:103.792px;font-family:HYPNUM76R;-inkscape-font-specification:'HYPNUM76R Bold';letter-spacing:0px;white-space:pre;fill:#00ccff;stroke-width:0;stroke-linecap:round;stroke-linejoin:round"
         transform="matrix(1.0283303,0,0,1.0283303,-425.74315,124.71531)"
         aria-label="CACHYOS"><path
           style="fill:#2b2b2b"
           d="m 534.84362,190.97658 h 12.77129 q 8.00739,0 13.68351,5.67612 5.77749,5.57477 5.87885,13.58216 v 0.30408 q 0,2.12854 -1.5204,3.64893 -1.41903,1.41904 -3.54757,1.41904 -2.12855,0 -3.64894,-1.41904 -1.41903,-1.52039 -1.41903,-3.64893 0,-3.95302 -2.73671,-6.68972 -2.7367,-2.7367 -6.68971,-2.7367 h -12.77129 q -3.95301,0 -6.68971,2.7367 -2.73671,2.7367 -2.73671,6.68972 v 28.98878 q 0,3.95301 2.73671,6.68972 2.7367,2.7367 6.68971,2.7367 h 12.77129 q 3.95301,0 6.68971,-2.7367 2.73671,-2.73671 2.73671,-6.68972 0,-2.12855 1.41903,-3.54758 1.52039,-1.52039 3.64894,-1.52039 2.12854,0 3.54757,1.52039 1.5204,1.41903 1.5204,3.54758 0,8.00739 -5.77749,13.78487 -5.77748,5.77749 -13.78487,5.77749 h -12.77129 q -8.00739,0 -13.78487,-5.77749 -5.77748,-5.77748 -5.77748,-13.78487 v -28.98878 q 0,-8.00739 5.77748,-13.78488 5.77748,-5.77748 13.78487,-5.77748 z m 59.59932,0 q 0,0 12.4672,0 0,0 4.35845,0 3.34486,0 4.66253,3.04078 l 12.46721,28.98878 q 0.40543,0.81088 0.40543,2.02719 v 14.49439 14.49439 q 0,2.12855 -1.52039,3.64894 -1.41903,1.41903 -3.54757,1.41903 -2.12855,0 -3.64894,-1.41903 -1.41903,-1.52039 -1.41903,-3.64894 v -9.42642 H 587.0437 v 9.42642 q 0,2.12855 -1.52039,3.64894 -1.41903,1.41903 -3.54758,1.41903 -2.12854,0 -3.64893,-1.41903 -1.41904,-1.52039 -1.41904,-3.64894 v -14.49439 -14.49439 q 0,-1.21631 0.40544,-2.02719 l 12.46721,-28.98878 q 1.31767,-3.04078 4.66253,-3.04078 z m 3.34486,10.13594 -10.7441,24.9344 v 8.41283 h 31.62413 v -8.41283 l -10.7441,-24.9344 z m 60.30882,-10.13594 h 12.77128 q 8.0074,0 13.68352,5.67612 5.77748,5.57477 5.87884,13.58216 v 0.30408 q 0,2.12854 -1.52039,3.64893 -1.41903,1.41904 -3.54757,1.41904 -2.12855,0 -3.64894,-1.41904 -1.41903,-1.52039 -1.41903,-3.64893 0,-3.95302 -2.73671,-6.68972 -2.7367,-2.7367 -6.68972,-2.7367 h -12.77128 q -3.95301,0 -6.68972,2.7367 -2.7367,2.7367 -2.7367,6.68972 v 28.98878 q 0,3.95301 2.7367,6.68972 2.73671,2.7367 6.68972,2.7367 h 12.77128 q 3.95302,0 6.68972,-2.7367 2.73671,-2.73671 2.73671,-6.68972 0,-2.12855 1.41903,-3.54758 1.52039,-1.52039 3.64894,-1.52039 2.12854,0 3.54757,1.52039 1.52039,1.41903 1.52039,3.54758 0,8.00739 -5.77748,13.78487 -5.77748,5.77749 -13.78488,5.77749 h -12.77128 q -8.00739,0 -13.78487,-5.77749 -5.77749,-5.77748 -5.77749,-13.78487 v -28.98878 q 0,-8.00739 5.77749,-13.78488 5.77748,-5.77748 13.78487,-5.77748 z m 43.48318,1.52039 q 1.52039,-1.52039 3.64894,-1.52039 2.12854,0 3.54757,1.52039 1.52039,1.41903 1.52039,3.54758 v 23.92081 h 31.62413 v -23.92081 q 0,-2.02719 1.52039,-3.44622 1.52039,-1.52039 3.54758,-1.52039 2.02719,0 3.54758,1.52039 1.52039,1.41903 1.52039,3.44622 v 57.97756 q 0,2.12855 -1.52039,3.64894 -1.41904,1.41903 -3.54758,1.41903 -2.12855,0 -3.64894,-1.41903 -1.41903,-1.52039 -1.41903,-3.64894 V 230.1013 H 710.2967 v 23.92081 q 0,2.12855 -1.52039,3.64894 -1.41903,1.41903 -3.54757,1.41903 -2.12855,0 -3.64894,-1.41903 -1.41903,-1.52039 -1.41903,-3.64894 v -57.97756 q 0,-2.12855 1.41903,-3.54758 z m 61.62649,0 q 1.52039,-1.52039 3.64894,-1.52039 2.12855,0 3.54758,1.52039 1.52039,1.41903 1.52039,3.54758 v 2.7367 l 15.81206,18.44741 15.81206,-18.44741 v -2.7367 q 0,-2.12855 1.41904,-3.54758 1.52039,-1.52039 3.64893,-1.52039 2.12855,0 3.54758,1.52039 1.52039,1.41903 1.52039,3.54758 v 4.56117 q 0,1.72311 -1.21631,3.2435 l -19.66372,23.00858 v 27.16431 q 0,2.12855 -1.52039,3.64894 -1.41903,1.41903 -3.54758,1.41903 -2.12854,0 -3.64894,-1.41903 -1.41903,-1.52039 -1.41903,-3.64894 V 226.8578 l -19.66372,-23.00858 q -1.21631,-1.52039 -1.21631,-3.2435 v -4.56117 q 0,-2.12855 1.41903,-3.54758 z"
           id="path303" /><path
           style="-inkscape-font-specification:'HYPNUM76R Light';fill:#2b2b2b"
           d="m 856.76101,197.05814 h -14.79847 q -5.16933,0 -8.81827,3.64894 -3.64893,3.64894 -3.64893,8.81826 v 31.01597 q 0,5.16933 3.64893,8.81827 3.64894,3.64894 8.81827,3.64894 h 14.79847 q 5.16933,0 8.81826,-3.64894 3.64894,-3.64894 3.64894,-8.81827 v -31.01597 q 0,-5.16932 -3.64894,-8.81826 -3.64893,-3.64894 -8.81826,-3.64894 z m -14.79847,-6.08156 h 14.79847 0.30408 q 7.50059,0.20272 12.77128,5.4734 5.27068,5.27069 5.4734,12.77129 v 0.30407 31.01597 q 0,7.70331 -5.4734,13.17672 -5.37205,5.37205 -13.07536,5.37205 h -14.79847 q -7.70331,0 -13.17672,-5.37205 -5.37205,-5.47341 -5.37205,-13.17672 v -31.01597 q 0,-7.70331 5.37205,-13.07536 5.47341,-5.4734 13.17672,-5.4734 z m 61.62649,0 h 14.79847 q 0,0 0.30408,0 7.50059,0.20272 12.77128,5.4734 5.27069,5.27069 5.47341,12.77129 v 0.30407 q 0,1.31768 -0.91224,2.22991 -0.81087,0.81087 -2.12854,0.81087 -1.31767,0 -2.22991,-0.81087 -0.81087,-0.91223 -0.81087,-2.22991 0,-5.16932 -3.64894,-8.81826 -3.64894,-3.64894 -8.81827,-3.64894 h -14.79847 q -5.16932,0 -8.81826,3.64894 -3.64894,3.64894 -3.64894,8.81826 0,3.04078 1.31767,4.86525 1.31767,1.72311 4.2571,3.2435 4.25709,2.12855 14.89982,4.45982 11.55497,2.43262 16.52158,5.06796 8.81827,4.56118 8.81827,13.37944 0,7.70331 -5.47341,13.17672 -5.37204,5.37205 -13.07536,5.37205 h -14.79847 q -7.70331,0 -13.17671,-5.37205 -5.37205,-5.47341 -5.37205,-13.17672 0,-1.31767 0.81087,-2.12854 0.91224,-0.91224 2.22991,-0.91224 1.31767,0 2.12855,0.91224 0.91223,0.81087 0.91223,2.12854 0,5.16933 3.64894,8.81827 3.64894,3.64894 8.81826,3.64894 h 14.79847 q 5.16933,0 8.81827,-3.64894 3.64894,-3.64894 3.64894,-8.81827 0,-2.93942 -1.31768,-4.66253 -1.31767,-1.82447 -4.25709,-3.34486 -4.35845,-2.2299 -14.89983,-4.45981 -11.35225,-2.43263 -16.52158,-5.06797 -8.81826,-4.56117 -8.81826,-13.4808 0,-7.70331 5.37205,-13.07536 5.4734,-5.4734 13.17671,-5.4734 z"
           id="path304" /><path
           id="path1"
           style="display:inline;fill:#2b2b2b"
           d="m 741.68882,-163.59078 c -56.04771,-0.1256 -120.15781,0.37716 -120.15781,0.37715 -55.79957,1.2e-4 -101.03402,45.23457 -101.03414,101.03414 -0.31909,41.591037 0.22385,83.262916 0,124.878522 1.1e-4,55.799568 45.23457,101.034038 101.03414,101.034138 69.83383,0.0692 139.72559,0.0276 209.58072,0 55.7996,-1.3e-4 101.03404,-45.23457 101.03414,-101.034138 -0.007,-6.410043 -0.001,-12.820557 0,-19.230757 C 932.14586,22.153467 914.8668,4.8744033 893.55199,4.8743939 H 811.88031 C 794.37358,4.9033762 779.07924,16.712511 774.62209,33.642371 l -0.0805,0.06253 -8.24613,32.780953 c -3.31777,10.305539 -11.52042,17.817933 -23.40204,17.817933 -2.67965,0 -6.83924,-0.675591 -10.98197,-2.995265 -3.74233,-2.095443 -7.45094,-5.553631 -10.05805,-11.375087 -1.07578,-2.402057 -1.9809,-5.15474 -2.59749,-8.400444 0,0 -4.58017,-25.557231 -6.76812,-38.290564 l -1.07757,-6.605812 c -1.01721,-6.238161 -3.24352,-15.1175358 -7.99669,-20.0954783 -3.39413,-3.5546461 -7.73463,-6.1143532 -12.61496,-7.3208707 -2.04467,-0.531272 -4.13915,-0.816442 -6.24995,-0.850754 -6.2709,6.81e-4 -12.33296,2.2543168 -17.08292,6.3483912 l -0.005,-0.00266 -31.13266,25.4860238 -0.0938,-0.108423 c -1.57492,1.308328 -3.54463,2.048073 -5.59143,2.099945 -5.03214,-4e-6 -9.1115,-4.079364 -9.11151,-9.111511 0.0215,-2.516392 1.08269,-4.9118607 2.93208,-6.6184513 l -0.0366,-0.043236 57.9304,-54.0557787 c 1.69405,-2.524501 9.93867,-8.881764 15.5517,-23.17256 3.56241,-8.845478 6.80741,-17.887826 10.15982,-26.835655 1.19444,-2.564567 3.22855,-4.508137 5.63732,-5.781007 1.72415,-0.9111 3.61604,-1.52454 5.64065,-1.56448 h 9.2951 27.56136 c 3.95627,0.009 7.53525,2.34944 9.1288,5.970579 l 0.0313,0.01996 17.85319,40.796928 0.0106,0.004 c 1.59161,3.634076 5.18279,5.983334 9.1501,5.987203 1.62253,-0.0092 3.2186,-0.413009 4.65021,-1.176687 l 0.0313,0.01064 70.40634,-37.317418 v -0.04922 c 5.27591,-2.79769 8.58111,-8.274213 8.598,-14.245965 0,-5.3744 -2.6693,-10.39756 -7.12331,-13.40519 v -0.002 l -57.9324,-39.11737 -0.012,-0.004 c -5.49985,-3.71003 -11.98299,-5.69329 -18.61813,-5.69453 v -6.6e-4 c -14.21781,-0.2233 -32.00478,-0.33528 -50.68736,-0.37715 z"
           sodipodi:nodetypes="scccccsssccccssscccscccccccccccccscccccccccccccccccccss" /></g></g></g></svg>
