<?xml version="1.0" encoding="UTF-8" standalone="no"?>
<!-- Created with Inkscape (http://www.inkscape.org/) -->

<svg
   width="1364.0009"
   height="1230.0005"
   viewBox="0 0 1364.0009 1230.0005"
   version="1.1"
   id="svg1"
   xml:space="preserve"
   xmlns="http://www.w3.org/2000/svg"
   xmlns:svg="http://www.w3.org/2000/svg"><defs
     id="defs1"><linearGradient
       id="swatch271"><stop
         style="stop-color:#48b899;stop-opacity:1;"
         offset="0"
         id="stop271" /></linearGradient></defs><g
     id="layer1"
     style="display:inline"
     transform="translate(-593.99967,-344.99976)"><g
       id="g622"
       transform="matrix(2.9999958,0,0,2.9999914,-2639.9949,-1684.4262)"
       style="display:inline;stroke-width:0.333334"><g
         id="g600"
         transform="matrix(0.46666799,0,0,0.46666799,698.92434,462.67272)"
         style="stroke-width:0.714278"><g
           id="text595"
           style="font-weight:300;font-size:165px;font-family:HYPNUM76R;-inkscape-font-specification:'HYPNUM76R Light';letter-spacing:0px;white-space:pre;fill:#2b2b2b;stroke-width:17.1875"
           transform="matrix(0.83116883,0,0,0.83116883,472.10677,44.515205)"
           aria-label="gnu/linux" /><g
           id="text590"
           style="font-size:128px;font-family:HYPNUM76R;-inkscape-font-specification:HYPNUM76R;letter-spacing:0px;white-space:pre;fill:#2b2b2b;stroke-width:0.454798"
           transform="matrix(1.7857143,0,0,1.7857143,209.36352,-1295.4582)"
           aria-label="cachyos"><path
             style="-inkscape-font-specification:'HYPNUM76R Bold';stroke-width:0.454798"
             d="m 374.57031,1390.0215 h 15.75 q 9.875,0 16.875,7 7.125,6.875 7.25,16.75 v 0.375 q 0,2.625 -1.875,4.5 -1.75,1.75 -4.375,1.75 -2.625,0 -4.5,-1.75 -1.75,-1.875 -1.75,-4.5 0,-4.875 -3.375,-8.25 -3.375,-3.375 -8.25,-3.375 h -15.75 q -4.875,0 -8.25,3.375 -3.375,3.375 -3.375,8.25 v 35.75 q 0,4.875 3.375,8.25 3.375,3.375 8.25,3.375 h 15.75 q 4.875,0 8.25,-3.375 3.375,-3.375 3.375,-8.25 0,-2.625 1.75,-4.375 1.875,-1.875 4.5,-1.875 2.625,0 4.375,1.875 1.875,1.75 1.875,4.375 0,9.875 -7.125,17 -7.125,7.125 -17,7.125 h -15.75 q -9.875,0 -17,-7.125 -7.125,-7.125 -7.125,-17 v -35.75 q 0,-9.875 7.125,-17 7.125,-7.125 17,-7.125 z m 73.5,0 q 0,0 15.375,0 0,0 5.375,0 4.125,0 5.75,3.75 l 15.375,35.75 q 0.5,1 0.5,2.5 v 17.875 17.875 q 0,2.625 -1.875,4.5 -1.75,1.75 -4.375,1.75 -2.625,0 -4.5,-1.75 -1.75,-1.875 -1.75,-4.5 v -11.625 h -39 v 11.625 q 0,2.625 -1.875,4.5 -1.75,1.75 -4.375,1.75 -2.625,0 -4.5,-1.75 -1.75,-1.875 -1.75,-4.5 v -17.875 -17.875 q 0,-1.5 0.5,-2.5 l 15.375,-35.75 q 1.625,-3.75 5.75,-3.75 z m 4.125,12.5 -13.25,30.75 v 10.375 h 39 v -10.375 l -13.25,-30.75 z m 74.375,-12.5 h 15.75 q 9.875,0 16.875,7 7.125,6.875 7.25,16.75 v 0.375 q 0,2.625 -1.875,4.5 -1.75,1.75 -4.375,1.75 -2.625,0 -4.5,-1.75 -1.75,-1.875 -1.75,-4.5 0,-4.875 -3.375,-8.25 -3.375,-3.375 -8.25,-3.375 h -15.75 q -4.875,0 -8.25,3.375 -3.375,3.375 -3.375,8.25 v 35.75 q 0,4.875 3.375,8.25 3.375,3.375 8.25,3.375 h 15.75 q 4.875,0 8.25,-3.375 3.375,-3.375 3.375,-8.25 0,-2.625 1.75,-4.375 1.875,-1.875 4.5,-1.875 2.625,0 4.375,1.875 1.875,1.75 1.875,4.375 0,9.875 -7.125,17 -7.125,7.125 -17,7.125 h -15.75 q -9.875,0 -17,-7.125 -7.125,-7.125 -7.125,-17 v -35.75 q 0,-9.875 7.125,-17 7.125,-7.125 17,-7.125 z m 53.625,1.875 q 1.875,-1.875 4.5,-1.875 2.625,0 4.375,1.875 1.875,1.75 1.875,4.375 v 29.5 h 39 v -29.5 q 0,-2.5 1.875,-4.25 1.875,-1.875 4.375,-1.875 2.5,0 4.375,1.875 1.875,1.75 1.875,4.25 v 71.5 q 0,2.625 -1.875,4.5 -1.75,1.75 -4.375,1.75 -2.625,0 -4.5,-1.75 -1.75,-1.875 -1.75,-4.5 v -29.5 h -39 v 29.5 q 0,2.625 -1.875,4.5 -1.75,1.75 -4.375,1.75 -2.625,0 -4.5,-1.75 -1.75,-1.875 -1.75,-4.5 v -71.5 q 0,-2.625 1.75,-4.375 z m 76,0 q 1.875,-1.875 4.5,-1.875 2.625,0 4.375,1.875 1.875,1.75 1.875,4.375 v 3.375 l 19.5,22.75 19.5,-22.75 v -3.375 q 0,-2.625 1.75,-4.375 1.875,-1.875 4.5,-1.875 2.625,0 4.375,1.875 1.875,1.75 1.875,4.375 v 5.625 q 0,2.125 -1.5,4 l -24.25,28.375 v 33.5 q 0,2.625 -1.875,4.5 -1.75,1.75 -4.375,1.75 -2.625,0 -4.5,-1.75 -1.75,-1.875 -1.75,-4.5 v -33.5 l -24.25,-28.375 q -1.5,-1.875 -1.5,-4 v -5.625 q 0,-2.625 1.75,-4.375 z"
             id="path621" /><path
             style="-inkscape-font-specification:'HYPNUM76R Light';stroke-width:0.454798"
             d="m 771.57031,1397.5215 h -18.25 q -6.375,0 -10.875,4.5 -4.5,4.5 -4.5,10.875 v 38.25 q 0,6.375 4.5,10.875 4.5,4.5 10.875,4.5 h 18.25 q 6.375,0 10.875,-4.5 4.5,-4.5 4.5,-10.875 v -38.25 q 0,-6.375 -4.5,-10.875 -4.5,-4.5 -10.875,-4.5 z m -18.25,-7.5 h 18.25 0.375 q 9.25,0.25 15.75,6.75 6.5,6.5 6.75,15.75 v 0.375 38.25 q 0,9.5 -6.75,16.25 -6.625,6.625 -16.125,6.625 h -18.25 q -9.5,0 -16.25,-6.625 -6.625,-6.75 -6.625,-16.25 v -38.25 q 0,-9.5 6.625,-16.125 6.75,-6.75 16.25,-6.75 z m 76,0 h 18.25 q 0,0 0.375,0 9.25,0.25 15.75,6.75 6.5,6.5 6.75,15.75 v 0.375 q 0,1.625 -1.125,2.75 -1,1 -2.625,1 -1.625,0 -2.75,-1 -1,-1.125 -1,-2.75 0,-6.375 -4.5,-10.875 -4.5,-4.5 -10.875,-4.5 h -18.25 q -6.375,0 -10.875,4.5 -4.5,4.5 -4.5,10.875 0,3.75 1.625,6 1.625,2.125 5.25,4 5.25,2.625 18.375,5.5 14.25,3 20.375,6.25 10.875,5.625 10.875,16.5 0,9.5 -6.75,16.25 -6.625,6.625 -16.125,6.625 h -18.25 q -9.5,0 -16.25,-6.625 -6.625,-6.75 -6.625,-16.25 0,-1.625 1,-2.625 1.125,-1.125 2.75,-1.125 1.625,0 2.625,1.125 1.125,1 1.125,2.625 0,6.375 4.5,10.875 4.5,4.5 10.875,4.5 h 18.25 q 6.375,0 10.875,-4.5 4.5,-4.5 4.5,-10.875 0,-3.625 -1.625,-5.75 -1.625,-2.25 -5.25,-4.125 -5.375,-2.75 -18.375,-5.5 -14,-3 -20.375,-6.25 -10.875,-5.625 -10.875,-16.625 0,-9.5 6.625,-16.125 6.75,-6.75 16.25,-6.75 z"
             id="path622" /></g></g><path
         id="path595"
         style="display:inline;fill:#2b2b2b;fill-opacity:1;stroke:none;stroke-width:0.772565;stroke-linecap:round;stroke-linejoin:round;stroke-opacity:1"
         d="m 1199.8545,676.47884 c -67.2981,3.3e-4 -121.8537,54.55533 -121.8548,121.85291 v 66.29181 c 0,64.78473 52.6819,121.85487 121.8535,121.85487 h 237.0163 c 52.9077,-1.9e-4 95.7978,-42.89001 95.7978,-95.79762 v 0 -13.98325 c -0.066,-7.25261 -2.2863,-14.32186 -6.3781,-20.31026 v 0 c -6.744,-10.10763 -18.0649,-16.20864 -30.2154,-16.28332 h -77.0733 c -13.636,0.0345 -25.3747,9.63711 -28.1107,22.99572 l -6.7133,32.18643 c -2.1743,10.43989 -11.3456,17.94267 -22.0093,18.00506 h -28.4168 c -8.1236,-0.38609 -15.537,-6.21195 -17.4376,-14.27332 -5.2116,-22.10903 -10.4233,-44.21806 -15.6351,-66.3271 h -0.01 c -3.0607,-12.98731 -14.6502,-22.16531 -27.9934,-22.16892 -9.2227,0.0274 -17.8729,4.47473 -23.2613,11.95922 l -0.076,-0.0151 -29.5809,41.03057 c -3.8856,5.10807 -11.7389,6.40793 -16.7759,1.25186 -4.4241,-4.52881 -3.5176,-10.88274 -1.008,-14.16723 l 53.9038,-73.68167 0.1375,-0.3368 c 3.4408,-4.75534 5.6874,-10.26861 6.5498,-16.07453 l 4.0402,-18.01456 c 1.1383,-4.82 5.3604,-8.28289 10.3101,-8.45636 h 26.0945 v 0 h 30.7394 c 6.2588,0.0167 12.231,2.62655 16.4952,7.20822 l 0.1021,0.0448 46.3798,50.10245 0.027,-0.002 c 2.0733,2.24054 4.9851,3.51776 8.0377,3.5256 3.5082,-0.0109 6.8004,-1.69589 8.8608,-4.53534 l 0.034,-0.002 45.0451,-62.11407 -0.014,-0.0397 c 1.7272,-2.37386 2.6629,-5.23123 2.6748,-8.16685 0,-5.9404 -3.7565,-11.23129 -9.3638,-13.19228 v -0.004 l -83.8736,-29.32419 -0.1223,-0.0429 -0.014,-0.004 c -1.8816,-0.6568 -3.8605,-0.99281 -5.8535,-0.99373 z" /></g></g></svg>
